<svg version="1.1" id="Layer_1" xmlns="http://www.w3.org/2000/svg" xmlns:xlink="http://www.w3.org/1999/xlink" x="0px" y="0px"
	 width="100%" viewBox="0 0 566 565" enable-background="new 0 0 566 565" xml:space="preserve">
<path fill="#000000" opacity="1.000000" stroke="none" 
	d="
M324.000000,566.000000 
	C216.023743,566.000000 108.547493,566.000000 1.035619,566.000000 
	C1.035619,377.732025 1.035619,189.464035 1.035619,1.098022 
	C189.559601,1.098022 378.119293,1.098022 566.839478,1.098022 
	C566.839478,189.333221 566.839478,377.666595 566.839478,566.000000 
	C486.130646,566.000000 405.315338,566.000000 324.000000,566.000000 
M8.134947,312.101013 
	C8.412664,313.051361 8.793064,313.984802 8.952310,314.954620 
	C10.655799,325.328735 11.761224,335.837921 14.108602,346.062561 
	C20.989357,376.033630 32.643227,404.112854 49.062119,430.155182 
	C64.089523,453.990479 82.519432,474.858459 103.765282,493.357788 
	C120.284569,507.741547 138.363022,519.753601 157.713898,529.852295 
	C174.720306,538.727417 192.660950,545.368286 211.116272,550.551025 
	C230.222290,555.916443 249.801208,558.866272 269.553192,559.860779 
	C292.255585,561.003906 314.870941,559.419800 337.259857,555.043152 
	C367.962311,549.041321 396.858337,538.207886 423.809662,522.436951 
	C450.730499,506.683807 474.141541,486.645172 494.555328,463.024048 
	C508.432037,446.967041 520.124573,429.486450 530.043945,410.786530 
	C539.355713,393.232117 546.370178,374.722961 551.617249,355.605652 
	C557.262207,335.038483 560.438965,314.002167 560.903198,292.666107 
	C561.126648,282.397064 560.891968,272.050018 559.863770,261.839081 
	C558.580688,249.097488 556.855530,236.338379 554.274658,223.802292 
	C548.740845,196.922562 538.095764,171.956268 524.622070,148.098495 
	C513.342957,128.126617 499.482117,110.100624 483.807281,93.499649 
	C476.429199,85.685638 468.109741,78.743462 460.052460,71.591438 
	C444.548553,57.829491 427.464783,46.142677 408.864532,37.216740 
	C392.426544,29.328428 375.280701,22.747231 358.051941,16.719156 
	C338.689606,9.944575 318.323395,7.247643 297.926117,6.151332 
	C275.393829,4.940270 252.943390,6.617691 230.720612,10.959406 
	C200.022583,16.956947 171.127350,27.765680 144.183945,43.557816 
	C117.282982,59.325081 93.868973,79.334373 73.468796,102.952377 
	C59.589249,119.021217 47.877365,136.503464 37.954174,155.216293 
	C28.644543,172.772110 21.615387,191.277100 16.384993,210.398361 
	C10.669701,231.292313 7.389210,252.652176 7.093931,274.336365 
	C6.926755,286.613190 7.691069,298.902649 8.134947,312.101013 
z"/>
<path fill="#60605E" opacity="1.000000" stroke="none" 
	d="
M8.085392,311.643738 
	C7.691069,298.902649 6.926755,286.613190 7.093931,274.336365 
	C7.389210,252.652176 10.669701,231.292313 16.384993,210.398361 
	C21.615387,191.277100 28.644543,172.772110 37.954174,155.216293 
	C47.877365,136.503464 59.589249,119.021217 73.468796,102.952377 
	C93.868973,79.334373 117.282982,59.325081 144.183945,43.557816 
	C171.127350,27.765680 200.022583,16.956947 230.720612,10.959406 
	C252.943390,6.617691 275.393829,4.940270 297.926117,6.151332 
	C318.323395,7.247643 338.689606,9.944575 358.051941,16.719156 
	C375.280701,22.747231 392.426544,29.328428 408.864532,37.216740 
	C427.464783,46.142677 444.548553,57.829491 460.052460,71.591438 
	C468.109741,78.743462 476.429199,85.685638 483.807281,93.499649 
	C499.482117,110.100624 513.342957,128.126617 524.622070,148.098495 
	C538.095764,171.956268 548.740845,196.922562 554.274658,223.802292 
	C556.855530,236.338379 558.580688,249.097488 559.863770,261.839081 
	C560.891968,272.050018 561.126648,282.397064 560.903198,292.666107 
	C560.438965,314.002167 557.262207,335.038483 551.617249,355.605652 
	C546.370178,374.722961 539.355713,393.232117 530.043945,410.786530 
	C520.124573,429.486450 508.432037,446.967041 494.555328,463.024048 
	C474.141541,486.645172 450.730499,506.683807 423.809662,522.436951 
	C396.858337,538.207886 367.962311,549.041321 337.259857,555.043152 
	C314.870941,559.419800 292.255585,561.003906 269.553192,559.860779 
	C249.801208,558.866272 230.222290,555.916443 211.116272,550.551025 
	C192.660950,545.368286 174.720306,538.727417 157.713898,529.852295 
	C138.363022,519.753601 120.284569,507.741547 103.765282,493.357788 
	C82.519432,474.858459 64.089523,453.990479 49.062119,430.155182 
	C32.643227,404.112854 20.989357,376.033630 14.108602,346.062561 
	C11.761224,335.837921 10.655799,325.328735 8.952310,314.954620 
	C8.793064,313.984802 8.412664,313.051361 8.085392,311.643738 
M130.648056,351.864899 
	C135.480621,362.053406 142.757431,370.192841 153.575012,377.351044 
	C146.513123,377.845490 142.928879,380.358276 143.656143,386.141693 
	C144.396378,392.028168 144.764175,398.187653 146.845444,403.635254 
	C152.234726,417.741364 163.416809,426.700775 176.333527,433.564362 
	C193.740631,442.813934 212.552704,444.159698 231.744553,442.537537 
	C239.126526,441.913605 246.463577,440.758545 253.821091,439.845490 
	C252.446548,441.255432 250.918060,442.287140 249.243286,442.657623 
	C243.106781,444.015228 240.151047,447.907745 240.320465,453.967224 
	C240.462906,459.061279 237.807312,462.627350 235.056274,466.466309 
	C230.021622,473.492004 225.171661,480.675079 220.710342,488.073303 
	C219.114502,490.719727 218.866043,494.178619 218.002594,497.266693 
	C221.045822,497.319458 224.131958,497.722931 227.123993,497.357086 
	C235.082031,496.383942 242.999512,495.079163 251.526474,493.818542 
	C250.930695,495.445404 250.624741,496.203033 250.373871,496.978485 
	C248.677261,502.222534 249.496124,503.156799 255.019165,502.047882 
	C268.387512,499.363770 281.860077,497.083832 295.072083,493.769745 
	C306.977844,490.783325 318.634552,486.763367 330.294403,482.878906 
	C332.154816,482.259094 334.981323,479.658386 334.751831,478.482971 
	C333.705597,473.124512 332.845001,468.007751 333.345978,462.377197 
	C333.642456,459.045319 330.539551,455.443573 329.106232,451.906067 
	C328.656006,450.794922 328.050018,449.020508 328.561310,448.362823 
	C332.164612,443.728027 336.040894,439.305389 340.232910,434.337524 
	C343.056305,443.233826 342.525116,450.928223 337.695801,458.293610 
	C336.795929,459.666077 336.955963,461.733521 336.626801,463.480194 
	C338.456879,463.335785 340.527771,463.698547 342.077057,462.962860 
	C350.702850,458.866760 356.600739,451.917511 360.849792,443.590302 
	C363.240906,438.904327 365.026093,433.909180 367.270630,428.613464 
	C376.350830,440.947754 388.440186,448.993469 401.687469,455.445831 
	C403.275085,456.219086 405.474731,455.735718 407.390717,455.834839 
	C406.876678,454.103302 406.811737,452.021362 405.777435,450.695740 
	C397.567505,440.173584 397.185242,427.947083 397.025146,414.259308 
	C398.910461,416.618927 399.877197,417.935333 400.951874,419.156799 
	C408.456055,427.686249 417.917206,431.777466 429.248505,431.234344 
	C430.828552,431.158630 432.351318,429.888123 433.900635,429.170746 
	C433.146088,427.795593 432.409454,426.410248 431.633759,425.047150 
	C428.883850,420.214844 424.736176,415.689056 423.617279,410.507446 
	C420.001770,393.764191 422.295532,377.158569 429.616180,361.824585 
	C443.297974,333.166321 450.134583,303.293793 445.734833,271.738586 
	C440.284393,232.647598 424.171204,198.613464 394.316559,171.870651 
	C393.845245,171.448486 393.477814,170.910339 393.633301,171.091309 
	C404.408783,164.873734 415.214325,158.744370 425.869141,152.363312 
	C427.273041,151.522537 427.906952,149.396011 428.897491,147.864990 
	C427.151947,147.229095 425.412354,146.061295 423.659912,146.041687 
	C409.997253,145.888885 396.281952,145.245865 382.685181,146.204376 
	C373.474762,146.853668 368.788483,142.788910 365.490997,135.333694 
	C364.482513,133.053543 363.211212,130.827545 362.614014,128.438324 
	C360.037872,118.131866 357.722565,107.760300 355.163574,97.449356 
	C354.770721,95.866486 353.599365,94.476837 352.788025,92.997841 
	C351.455841,94.037804 349.687286,94.810936 348.861847,96.160767 
	C343.262207,105.317703 340.796417,115.440041 340.421295,126.078377 
	C340.226715,131.596725 340.387115,137.127609 340.387115,142.743790 
	C316.084198,135.087845 291.225708,131.897110 265.927521,134.601151 
	C235.356003,137.868820 206.991150,148.231064 180.968735,164.444855 
	C169.426224,171.636658 158.846344,180.370819 147.808640,188.376114 
	C134.866241,197.762802 124.912186,209.682922 118.151985,224.125687 
	C105.169724,251.861557 102.085274,281.328491 104.372520,311.407471 
	C105.749733,329.518890 110.877800,346.747253 121.529678,361.855103 
	C122.673752,363.477783 124.883163,364.349335 126.598373,365.569305 
	C126.706177,363.518768 127.142731,361.422241 126.863205,359.425934 
	C125.817436,351.957214 124.537346,344.521271 123.345123,337.073059 
	C123.743431,337.026428 124.141739,336.979797 124.540047,336.933136 
	C126.449699,341.695587 128.359360,346.458038 130.648056,351.864899 
z"/>
<path fill="#F1F1F1" opacity="1.000000" stroke="none" 
	d="
M130.458527,351.542694 
	C128.359360,346.458038 126.449699,341.695587 124.540047,336.933136 
	C124.141739,336.979797 123.743431,337.026428 123.345123,337.073059 
	C124.537346,344.521271 125.817436,351.957214 126.863205,359.425934 
	C127.142731,361.422241 126.706177,363.518768 126.598373,365.569305 
	C124.883163,364.349335 122.673752,363.477783 121.529678,361.855103 
	C110.877800,346.747253 105.749733,329.518890 104.372520,311.407471 
	C102.085274,281.328491 105.169724,251.861557 118.151985,224.125687 
	C124.912186,209.682922 134.866241,197.762802 147.808640,188.376114 
	C158.846344,180.370819 169.426224,171.636658 180.968735,164.444855 
	C206.991150,148.231064 235.356003,137.868820 265.927521,134.601151 
	C291.225708,131.897110 316.084198,135.087845 340.387115,142.743790 
	C340.387115,137.127609 340.226715,131.596725 340.421295,126.078377 
	C340.796417,115.440041 343.262207,105.317703 348.861847,96.160767 
	C349.687286,94.810936 351.455841,94.037804 352.788025,92.997833 
	C353.599365,94.476837 354.770721,95.866486 355.163574,97.449356 
	C357.722565,107.760300 360.037872,118.131866 362.614014,128.438324 
	C363.211212,130.827545 364.482513,133.053543 365.490997,135.333694 
	C368.788483,142.788910 373.474762,146.853668 382.685181,146.204376 
	C396.281952,145.245865 409.997253,145.888885 423.659912,146.041687 
	C425.412354,146.061295 427.151947,147.229095 428.897491,147.864975 
	C427.906952,149.396011 427.273041,151.522537 425.869141,152.363312 
	C415.214325,158.744370 404.408783,164.873734 393.633301,171.091309 
	C393.477814,170.910339 393.845245,171.448486 394.316559,171.870651 
	C424.171204,198.613464 440.284393,232.647598 445.734833,271.738586 
	C450.134583,303.293793 443.297974,333.166321 429.616180,361.824585 
	C422.295532,377.158569 420.001770,393.764191 423.617279,410.507446 
	C424.736176,415.689056 428.883850,420.214844 431.633759,425.047150 
	C432.409454,426.410248 433.146088,427.795593 433.900635,429.170715 
	C432.351318,429.888123 430.828552,431.158630 429.248505,431.234344 
	C417.917206,431.777466 408.456055,427.686249 400.951874,419.156799 
	C399.877197,417.935333 398.910461,416.618927 397.025146,414.259308 
	C397.185242,427.947083 397.567505,440.173584 405.777435,450.695740 
	C406.811737,452.021362 406.876678,454.103302 407.390717,455.834839 
	C405.474731,455.735718 403.275085,456.219086 401.687469,455.445831 
	C388.440186,448.993469 376.350830,440.947754 367.270630,428.613464 
	C365.026093,433.909180 363.240906,438.904327 360.849792,443.590302 
	C356.600739,451.917511 350.702850,458.866760 342.077057,462.962860 
	C340.527771,463.698547 338.456879,463.335785 336.626831,463.480194 
	C336.955963,461.733521 336.795929,459.666077 337.695801,458.293610 
	C342.525116,450.928223 343.056305,443.233826 340.232910,434.337524 
	C336.040894,439.305389 332.164612,443.728027 328.561310,448.362823 
	C328.050018,449.020508 328.656006,450.794922 329.106232,451.906067 
	C330.539551,455.443573 333.642456,459.045319 333.345978,462.377197 
	C332.845001,468.007751 333.705597,473.124512 334.751831,478.482971 
	C334.981323,479.658386 332.154816,482.259094 330.294403,482.878906 
	C318.634552,486.763367 306.977844,490.783325 295.072083,493.769745 
	C281.860077,497.083832 268.387512,499.363770 255.019165,502.047882 
	C249.496124,503.156799 248.677261,502.222534 250.373871,496.978485 
	C250.624741,496.203033 250.930695,495.445404 251.526474,493.818542 
	C242.999512,495.079163 235.082031,496.383942 227.123993,497.357086 
	C224.131958,497.722931 221.045822,497.319458 218.002594,497.266693 
	C218.866043,494.178619 219.114502,490.719727 220.710342,488.073303 
	C225.171661,480.675079 230.021622,473.492004 235.056274,466.466309 
	C237.807312,462.627350 240.462906,459.061279 240.320465,453.967224 
	C240.151047,447.907745 243.106781,444.015228 249.243286,442.657623 
	C250.918060,442.287140 252.446548,441.255432 253.821091,439.845490 
	C246.463577,440.758545 239.126526,441.913605 231.744553,442.537537 
	C212.552704,444.159698 193.740631,442.813934 176.333527,433.564362 
	C163.416809,426.700775 152.234726,417.741364 146.845444,403.635254 
	C144.764175,398.187653 144.396378,392.028168 143.656143,386.141693 
	C142.928879,380.358276 146.513123,377.845490 153.575012,377.351044 
	C142.757431,370.192841 135.480621,362.053406 130.458527,351.542694 
M108.206703,318.799896 
	C110.342033,332.727112 114.277588,345.982178 122.261559,358.109680 
	C121.837784,344.382080 121.430565,331.190857 121.276474,317.128448 
	C121.517059,312.751129 121.757645,308.373840 122.501007,303.867645 
	C122.668404,303.911377 122.835793,303.955139 123.041641,304.920868 
	C123.486206,310.333710 123.930763,315.746521 124.405907,321.997833 
	C125.871819,327.797821 127.337738,333.597809 128.845551,340.123077 
	C133.244324,353.614685 140.142761,365.270050 152.155350,372.813629 
	C149.371613,360.894897 146.581619,348.949371 143.875626,336.223572 
	C143.675919,334.144043 143.476212,332.064484 143.915436,330.260651 
	C147.885529,342.491669 151.852356,354.723755 155.826859,366.953339 
	C158.539703,375.300720 157.740402,376.942566 149.703049,380.720947 
	C148.808456,381.141449 148.533981,382.881073 147.969040,384.668640 
	C147.952072,385.108063 147.935104,385.547455 147.219894,386.249207 
	C146.822479,387.268097 145.875519,388.444244 146.114929,389.280914 
	C147.968048,395.756775 149.038635,402.733643 152.260452,408.486328 
	C160.394302,423.009583 174.216858,430.910522 189.365265,436.139069 
	C206.899231,442.190948 225.058258,440.757172 243.057861,438.407257 
	C250.761093,437.401581 258.348175,435.506165 266.042816,434.790680 
	C266.447510,436.030945 266.852173,437.271240 266.686707,438.896759 
	C260.976227,441.107666 255.364716,443.642700 249.523697,445.426025 
	C244.929337,446.828705 243.225479,449.725983 243.077545,454.083191 
	C243.021637,455.729706 243.083466,457.380249 242.847473,459.691223 
	C241.933777,461.247742 241.120773,462.874756 240.089127,464.348724 
	C235.332123,471.145691 230.386627,477.814758 225.776764,484.708893 
	C223.744019,487.748901 222.348587,491.215057 220.198700,495.391235 
	C223.593491,494.993378 225.710968,494.795593 227.812805,494.490204 
	C237.476624,493.085999 247.136063,491.651764 256.503387,490.808594 
	C255.188705,493.239471 253.851135,495.659058 252.629059,498.135620 
	C252.569809,498.255707 253.525726,498.876770 254.855606,499.230713 
	C281.150452,494.513947 307.405640,489.649994 332.984039,478.822510 
	C330.495972,473.015106 328.296570,467.881439 326.991486,462.725037 
	C328.251465,463.142700 329.511475,463.560364 330.771454,463.978027 
	C331.100037,463.690948 331.428619,463.403900 331.757202,463.116821 
	C329.224487,458.690796 326.691803,454.264771 324.165497,449.133850 
	C329.603851,442.064819 335.042236,434.995789 340.586426,427.789215 
	C345.627014,438.527740 347.132751,449.115570 340.604126,459.934479 
	C354.686371,453.036469 360.323730,440.165344 364.742523,425.545593 
	C365.230927,423.740692 365.719360,421.935760 366.277161,419.874481 
	C373.300873,436.384064 387.263397,444.302032 401.870483,451.787994 
	C393.094208,436.624084 393.190308,420.505432 394.997925,403.491760 
	C405.903595,423.292603 417.537445,431.198822 428.797638,427.802582 
	C426.242310,422.912567 423.047241,418.061707 421.138855,412.748688 
	C419.596924,408.455994 419.605927,403.606171 419.146118,398.103302 
	C419.483551,393.399994 419.820984,388.696655 420.583771,383.338379 
	C421.791382,377.556549 422.998993,371.774750 424.669159,365.464661 
	C426.949463,360.356232 429.229767,355.247803 431.901428,349.559845 
	C433.917786,343.374084 435.934174,337.188354 438.368591,330.350739 
	C439.775421,323.601837 441.182251,316.852905 442.866730,309.344482 
	C443.169922,302.900146 443.473114,296.455780 443.931976,289.129120 
	C443.619568,284.086121 443.307159,279.043152 443.080200,273.180298 
	C442.605865,270.075439 442.131561,266.970581 441.667328,263.039307 
	C440.777222,259.692902 439.887115,256.346527 439.028168,252.226257 
	C437.631500,247.820282 436.234802,243.414307 434.825836,238.296127 
	C433.656036,235.815292 432.486206,233.334457 431.268921,230.121658 
	C430.214661,227.746094 429.160400,225.370514 427.944824,222.325882 
	C426.794464,220.163620 425.644104,218.001358 424.236084,215.191269 
	C422.999268,213.048950 421.762451,210.906631 420.287170,208.103989 
	C418.694611,205.656326 417.102051,203.208664 415.229095,200.121399 
	C413.344238,197.323257 411.459381,194.525101 409.282379,191.095779 
	C406.034302,187.668732 402.786255,184.241699 399.153076,180.224014 
	C396.291870,177.763260 393.430664,175.302521 390.109528,172.319366 
	C388.788086,171.228714 387.466644,170.138062 386.808563,168.729721 
	C391.264008,166.938065 395.719452,165.146423 400.921051,163.303833 
	C407.002930,160.008179 413.084839,156.712540 419.710541,153.241867 
	C421.370422,152.120865 423.030304,150.999878 424.690155,149.878876 
	C408.903900,148.906540 393.607361,148.674866 378.324188,149.025269 
	C372.544281,149.157791 368.602661,146.902283 366.313202,142.129227 
	C362.664276,134.522034 359.564941,126.651222 356.183258,118.083649 
	C354.785736,111.297188 353.388245,104.510719 351.990753,97.724251 
	C351.346313,97.632706 350.701874,97.541153 350.057434,97.449608 
	C348.093689,104.642593 346.129944,111.835571 343.984131,119.878334 
	C343.684265,122.979118 343.105103,126.083359 343.143372,129.179962 
	C343.220184,135.393631 343.634186,141.603119 343.277374,147.545197 
	C340.185638,146.405182 337.093903,145.265167 333.290894,143.802261 
	C327.147522,142.359329 321.060150,140.587189 314.851044,139.530396 
	C287.906921,134.944534 261.202972,135.337250 234.245331,144.096405 
	C224.790390,147.650269 215.335449,151.204147 205.174652,154.912811 
	C198.946777,158.171616 192.718887,161.430435 185.866089,164.887085 
	C181.805786,167.535995 177.745483,170.184921 173.019608,172.966446 
	C168.635101,176.554718 164.250580,180.142975 159.227493,183.995392 
	C154.430984,187.551971 149.634476,191.108551 144.216522,194.954636 
	C140.113327,199.234406 136.010117,203.514160 131.336777,208.174210 
	C124.223793,217.072784 118.994659,226.970367 115.146515,238.418854 
	C113.577827,244.899063 112.009140,251.379288 110.175194,258.573975 
	C109.233551,265.300842 108.291916,272.027679 107.158539,279.579010 
	C107.063515,287.382690 106.968498,295.186371 106.725792,303.899445 
	C107.233223,308.601318 107.740654,313.303162 108.206703,318.799896 
z"/>
<path fill="#FEF5EF" opacity="1.000000" stroke="none" 
	d="
M265.988037,434.015015 
	C258.348175,435.506165 250.761093,437.401581 243.057861,438.407257 
	C225.058258,440.757172 206.899231,442.190948 189.365265,436.139069 
	C174.216858,430.910522 160.394302,423.009583 152.260452,408.486328 
	C149.038635,402.733643 147.968048,395.756775 146.114929,389.280914 
	C145.875519,388.444244 146.822479,387.268097 147.605621,386.491943 
	C148.190094,387.530243 148.250671,388.396149 148.613190,389.108368 
	C149.763123,391.367523 151.254105,394.130646 154.111557,392.201752 
	C155.927933,390.975586 157.582581,388.267761 157.741943,386.108643 
	C158.007050,382.517273 154.662277,382.965088 152.258911,383.053894 
	C150.820114,383.107025 149.400284,383.673279 147.971924,384.008942 
	C148.533981,382.881073 148.808456,381.141449 149.703049,380.720947 
	C157.740402,376.942566 158.539703,375.300720 155.826859,366.953339 
	C151.852356,354.723755 147.885529,342.491669 143.502533,329.682434 
	C142.964813,326.407257 142.839981,323.710297 142.791336,320.559723 
	C143.192963,314.740234 143.518417,309.374390 143.941040,303.589447 
	C145.011520,295.114197 145.984802,287.058044 147.129700,278.634705 
	C148.676697,272.042358 150.052063,265.817200 151.634430,259.278503 
	C153.311035,254.582733 154.780609,250.200577 156.343567,245.539963 
	C158.394333,249.420593 160.165604,252.772354 161.941299,256.484314 
	C164.604385,261.613647 167.263062,266.382782 169.979187,271.498840 
	C172.598053,276.058502 175.159454,280.271271 177.811768,284.805725 
	C181.039719,290.424591 184.176773,295.721771 187.262909,301.443665 
	C188.829239,317.922638 188.737610,333.771088 181.639359,348.939819 
	C189.750870,343.175629 194.232986,334.889832 198.460510,326.074341 
	C203.036774,325.677460 207.191025,325.318207 210.613907,325.022217 
	C208.362686,330.642944 205.439438,335.419922 204.655502,340.525421 
	C203.633514,347.181366 204.307571,354.097717 204.249939,361.304626 
	C206.981491,369.816895 208.796143,378.405243 212.703079,385.903442 
	C216.724792,393.621887 224.250793,392.827545 226.778305,384.507141 
	C228.945938,377.371490 228.945572,369.577271 229.955475,361.629364 
	C229.622681,350.561218 226.907486,340.581055 221.971542,331.035645 
	C222.331467,330.637878 222.474472,330.477875 222.910919,330.482697 
	C234.201080,338.526337 241.570511,349.607941 249.191803,360.890503 
	C251.575912,357.592651 253.421951,354.607086 255.705612,352.005676 
	C257.851227,349.561554 257.721588,347.593719 255.925110,345.039856 
	C248.476089,334.450287 238.886276,326.489960 227.245941,320.886414 
	C218.824371,316.832367 210.114746,315.803833 201.022308,317.538025 
	C201.982971,311.765106 202.944260,306.385254 204.040894,300.614685 
	C204.572906,296.512390 204.969559,292.800873 205.747437,289.129211 
	C214.239700,291.048584 222.350739,292.928131 230.461777,294.807648 
	C229.382401,292.968903 227.970612,291.800568 226.353928,291.316162 
	C220.978210,289.705353 215.492050,288.459869 210.130005,286.808777 
	C208.503571,286.307922 207.142166,284.946350 205.702667,283.731201 
	C205.695511,283.323456 205.645065,283.163513 205.689316,282.550171 
	C205.645844,277.695221 205.507690,273.293640 205.441284,268.447266 
	C205.317993,264.665161 205.122955,261.327911 204.909805,257.680695 
	C208.555618,260.871307 211.690521,263.614807 214.995331,266.635193 
	C219.111572,270.248779 223.057892,273.585388 227.257690,277.147156 
	C235.000977,282.264740 242.490814,287.157166 250.193832,292.315857 
	C255.317947,295.209595 260.093933,298.146484 265.182739,300.366272 
	C269.215210,302.125336 271.834106,304.275757 271.123840,309.474457 
	C271.204193,316.963501 271.341278,323.987610 271.375793,331.460693 
	C270.448608,348.473328 268.147644,364.807007 263.889252,380.945984 
	C275.805603,366.577148 283.475128,350.150421 287.816162,331.626709 
	C288.700653,325.991791 289.437012,320.742828 290.390015,315.462219 
	C290.606659,315.430511 290.985474,315.210876 291.106262,315.540833 
	C294.865326,327.575043 298.503571,339.279327 301.769623,351.002136 
	C300.580780,351.478241 299.316711,351.739105 299.015839,352.423401 
	C295.578033,360.243652 292.286987,368.128418 288.593079,376.010132 
	C287.177429,376.456268 286.034363,376.743927 285.087128,377.341858 
	C271.244171,386.080353 257.389893,394.802094 243.631119,403.671814 
	C240.239838,405.858032 237.179825,408.558105 233.592957,411.032104 
	C231.882126,412.098541 229.237381,413.563416 229.419189,414.145691 
	C230.729355,418.341797 232.192261,422.632599 234.562210,426.271057 
	C235.300140,427.403961 239.073669,427.075012 241.305542,426.638367 
	C260.223877,422.937103 279.095001,418.994720 298.014526,415.299866 
	C300.641113,414.786926 303.454193,415.229065 306.180939,415.229065 
	C306.223022,415.810699 306.265106,416.392334 306.307190,416.973969 
	C302.179901,419.335480 298.052612,421.696991 293.561310,424.106873 
	C284.127533,427.441864 275.057800,430.728424 265.988037,434.015015 
M177.057617,417.451416 
	C176.331284,418.976501 175.604950,420.501617 174.878616,422.026703 
	C175.198944,422.403870 175.519287,422.781036 175.839630,423.158203 
	C179.693008,418.399170 182.813873,420.919006 186.143341,423.299622 
	C187.867661,424.532501 189.989258,425.209747 191.931366,426.138062 
	C192.285995,425.449921 192.640625,424.761780 192.995255,424.073639 
	C188.771194,421.394562 184.587097,418.647217 180.273529,416.121002 
	C179.722443,415.798309 178.496674,416.627686 177.057617,417.451416 
z"/>
<path fill="#63645C" opacity="1.000000" stroke="none" 
	d="
M161.936890,256.124115 
	C160.165604,252.772354 158.394333,249.420593 156.343567,245.539963 
	C154.780609,250.200577 153.311035,254.582733 151.310242,258.947876 
	C148.869431,258.620636 146.962616,258.062317 145.049789,258.040955 
	C133.514099,257.912170 121.977051,257.906433 110.440453,257.859497 
	C112.009140,251.379288 113.577827,244.899063 115.869873,238.167587 
	C123.738190,237.943375 130.883148,237.970428 138.184937,238.323486 
	C140.122284,239.381439 141.902802,240.113358 144.129227,240.886139 
	C149.700699,241.284668 154.834213,242.039948 159.950577,241.937653 
	C204.495544,241.047012 249.023010,242.579514 293.616974,240.459534 
	C337.807953,238.358688 382.176849,240.017914 426.467621,239.957520 
	C429.258209,239.953705 432.047974,239.338898 434.838104,239.008347 
	C436.234802,243.414307 437.631500,247.820282 438.563843,252.613129 
	C428.097107,253.025970 418.093811,252.977402 408.092560,253.097107 
	C396.169830,253.239792 384.249695,253.622986 372.326935,253.725433 
	C359.099213,253.839096 345.869720,253.722656 332.641174,253.763000 
	C318.419983,253.806381 304.199066,253.967514 289.977936,253.985168 
	C259.855621,254.022568 229.733261,254.000320 199.610916,254.002029 
	C188.784225,254.002625 177.955887,253.907959 167.132492,254.096497 
	C165.389359,254.126862 163.668198,255.416550 161.936890,256.124115 
z"/>
<path fill="#494A44" opacity="1.000000" stroke="none" 
	d="
M302.141785,350.983582 
	C298.503571,339.279327 294.865326,327.575043 291.092041,315.298767 
	C290.758911,314.528107 290.560822,314.329437 290.362732,314.130798 
	C290.299622,314.585175 290.236511,315.039520 290.173401,315.493896 
	C289.437012,320.742828 288.700653,325.991791 287.374390,331.627930 
	C281.682465,331.680695 276.580444,331.346222 271.478394,331.011749 
	C271.341278,323.987610 271.204193,316.963501 271.580627,309.472565 
	C286.028015,309.337189 299.961029,309.905334 313.895905,309.955902 
	C356.793243,310.111572 399.691315,310.069336 442.589081,310.104004 
	C441.182251,316.852905 439.775421,323.601837 437.694153,330.675964 
	C410.805664,331.000854 384.591461,330.958038 358.377838,331.063232 
	C355.640472,331.074219 352.906555,331.961182 349.757996,332.409058 
	C343.744293,332.469727 337.997223,331.788574 332.572906,332.814301 
	C320.506622,335.096100 311.555725,342.939606 302.804199,351.092163 
	C302.597229,350.996918 302.141785,350.983582 302.141785,350.983582 
z"/>
<path fill="#50514B" opacity="1.000000" stroke="none" 
	d="
M442.727905,309.724243 
	C399.691315,310.069336 356.793243,310.111572 313.895905,309.955902 
	C299.961029,309.905334 286.028015,309.337189 271.637360,309.007660 
	C271.834106,304.275757 269.215210,302.125336 265.182739,300.366272 
	C260.093933,298.146484 255.317947,295.209595 250.331223,291.941498 
	C252.099609,290.867310 253.943420,290.056458 255.788025,290.054626 
	C318.450745,289.992737 381.113556,290.007629 443.776306,290.011444 
	C443.473114,296.455780 443.169922,302.900146 442.727905,309.724243 
z"/>
<path fill="#575851" opacity="1.000000" stroke="none" 
	d="
M443.854156,289.570282 
	C381.113556,290.007629 318.450745,289.992737 255.788025,290.054626 
	C253.943420,290.056458 252.099609,290.867310 250.118042,291.675293 
	C242.490814,287.157166 235.000977,282.264740 227.401917,276.783661 
	C228.654160,275.797180 230.009781,275.074646 231.377975,275.049927 
	C253.647217,274.647675 275.917389,274.113190 298.188690,274.045319 
	C346.456970,273.898254 394.726044,274.000122 442.994751,274.000153 
	C443.307159,279.043152 443.619568,284.086121 443.854156,289.570282 
z"/>
<path fill="#5E6058" opacity="1.000000" stroke="none" 
	d="
M161.941299,256.484314 
	C163.668198,255.416550 165.389359,254.126862 167.132492,254.096497 
	C177.955887,253.907959 188.784225,254.002625 199.610916,254.002029 
	C229.733261,254.000320 259.855621,254.022568 289.977936,253.985168 
	C304.199066,253.967514 318.419983,253.806381 332.641174,253.763000 
	C345.869720,253.722656 359.099213,253.839096 372.326935,253.725433 
	C384.249695,253.622986 396.169830,253.239792 408.092560,253.097107 
	C418.093811,252.977402 428.097107,253.025970 438.548248,253.000076 
	C439.887115,256.346527 440.777222,259.692902 441.148743,263.480408 
	C419.149109,263.947693 397.667603,263.897064 376.187042,264.015259 
	C324.098083,264.301849 272.009460,264.654541 219.921295,265.056305 
	C218.219421,265.069427 216.523911,265.905701 214.825424,266.358276 
	C211.690521,263.614807 208.555618,260.871307 204.909805,257.680695 
	C205.122955,261.327911 205.317993,264.665161 204.946869,268.472961 
	C194.775513,268.963013 185.167603,268.868958 175.567459,269.098724 
	C173.670258,269.144135 171.802872,270.435303 169.921722,271.151947 
	C167.263062,266.382782 164.604385,261.613647 161.941299,256.484314 
z"/>
<path fill="#282925" opacity="1.000000" stroke="none" 
	d="
M418.926941,399.003510 
	C419.605927,403.606171 419.596924,408.455994 421.138855,412.748688 
	C423.047241,418.061707 426.242310,422.912567 428.797638,427.802582 
	C417.537445,431.198822 405.903595,423.292603 394.997925,403.491760 
	C393.190308,420.505432 393.094208,436.624084 401.870483,451.787994 
	C387.263397,444.302032 373.300873,436.384064 366.277161,419.874481 
	C365.719360,421.935760 365.230927,423.740692 364.027588,425.798157 
	C344.883362,426.034180 326.454071,426.017639 307.956451,425.541992 
	C308.246857,418.719055 308.605652,412.355164 309.434875,405.983978 
	C324.345764,407.121002 338.044983,404.471832 351.312836,398.209198 
	C353.605957,398.647339 355.573303,398.976715 357.541229,398.980347 
	C378.003082,399.018127 398.465027,399.003540 418.926941,399.003510 
z"/>
<path fill="#787A70" opacity="1.000000" stroke="none" 
	d="
M399.538177,180.814651 
	C402.786255,184.241699 406.034302,187.668732 409.003662,191.598007 
	C406.273895,192.400146 403.823151,192.958832 401.371796,192.961655 
	C355.926086,193.013962 310.480225,192.982529 265.034576,193.052505 
	C262.800720,193.055939 260.552063,193.753036 258.339325,194.254974 
	C256.146912,194.752319 253.992874,195.917130 251.819244,195.924088 
	C218.026566,196.032288 184.233398,196.021011 150.440552,195.942871 
	C148.572052,195.938553 146.705444,195.110016 144.837967,194.665131 
	C149.634476,191.108551 154.430984,187.551971 159.826050,184.142212 
	C163.340729,184.584854 166.251251,185.042099 169.174133,185.143860 
	C175.871582,185.377045 182.574905,185.528091 189.276154,185.540802 
	C195.804306,185.553192 202.332703,185.278030 208.861282,185.265106 
	C215.564194,185.251816 222.270325,185.558319 228.969574,185.432617 
	C234.181168,185.334824 239.410400,184.999466 244.581543,184.362045 
	C247.695938,183.978149 250.711807,182.115097 253.775925,182.104874 
	C299.246277,181.952927 344.717285,182.023254 390.188019,181.949051 
	C393.305359,181.943970 396.421478,181.209763 399.538177,180.814651 
z"/>
<path fill="#74756C" opacity="1.000000" stroke="none" 
	d="
M144.527252,194.809875 
	C146.705444,195.110016 148.572052,195.938553 150.440552,195.942871 
	C184.233398,196.021011 218.026566,196.032288 251.819244,195.924088 
	C253.992874,195.917130 256.146912,194.752319 258.339325,194.254974 
	C260.552063,193.753036 262.800720,193.055939 265.034576,193.052505 
	C310.480225,192.982529 355.926086,193.013962 401.371796,192.961655 
	C403.823151,192.958832 406.273895,192.400146 409.149719,191.913589 
	C411.459381,194.525101 413.344238,197.323257 414.948853,200.625183 
	C412.213135,201.419296 409.757965,201.960037 407.302216,201.962845 
	C362.644226,202.013748 317.986176,201.989716 273.328156,202.031982 
	C271.205750,202.033981 269.060028,202.378281 266.967041,202.780838 
	C263.620300,203.424545 260.312103,204.883865 256.981781,204.901505 
	C225.655365,205.067337 194.327484,204.952103 163.000977,205.107819 
	C160.906433,205.118225 158.819565,206.671646 156.471100,207.235046 
	C154.496933,204.229706 152.221512,204.497314 149.965607,206.023392 
	C148.238983,207.191391 146.733490,208.686279 144.666046,210.027771 
	C140.103928,209.277802 136.005417,208.535858 131.906921,207.793915 
	C136.010117,203.514160 140.113327,199.234406 144.527252,194.809875 
z"/>
<path fill="#676960" opacity="1.000000" stroke="none" 
	d="
M434.831970,238.652237 
	C432.047974,239.338898 429.258209,239.953705 426.467621,239.957520 
	C382.176849,240.017914 337.807953,238.358688 293.616974,240.459534 
	C249.023010,242.579514 204.495544,241.047012 159.950577,241.937653 
	C154.834213,242.039948 149.700699,241.284668 144.315140,240.600830 
	C148.443329,236.832932 152.831497,233.391220 157.219681,229.949493 
	C156.568863,229.518265 155.918060,229.087051 155.267242,228.655838 
	C157.524002,231.594803 159.780762,234.533768 162.428833,237.982315 
	C163.943771,236.114471 164.837280,235.012817 166.215912,233.932343 
	C207.364670,232.940826 248.008423,234.483673 288.733612,232.497879 
	C333.563293,230.311966 378.581818,232.018417 423.517975,231.950424 
	C426.117981,231.946487 428.716919,231.235550 431.316376,230.853622 
	C432.486206,233.334457 433.656036,235.815292 434.831970,238.652237 
z"/>
<path fill="#5B5C55" opacity="1.000000" stroke="none" 
	d="
M214.995331,266.635193 
	C216.523911,265.905701 218.219421,265.069427 219.921295,265.056305 
	C272.009460,264.654541 324.098083,264.301849 376.187042,264.015259 
	C397.667603,263.897064 419.149109,263.947693 441.143738,263.893616 
	C442.131561,266.970581 442.605865,270.075439 443.037476,273.590210 
	C394.726044,274.000122 346.456970,273.898254 298.188690,274.045319 
	C275.917389,274.113190 253.647217,274.647675 231.377975,275.049927 
	C230.009781,275.074646 228.654160,275.797180 227.148468,276.558533 
	C223.057892,273.585388 219.111572,270.248779 214.995331,266.635193 
z"/>
<path fill="#72736A" opacity="1.000000" stroke="none" 
	d="
M156.729126,207.507401 
	C158.819565,206.671646 160.906433,205.118225 163.000977,205.107819 
	C194.327484,204.952103 225.655365,205.067337 256.981781,204.901505 
	C260.312103,204.883865 263.620300,203.424545 266.967041,202.780838 
	C269.060028,202.378281 271.205750,202.033981 273.328156,202.031982 
	C317.986176,201.989716 362.644226,202.013748 407.302216,201.962845 
	C409.757965,201.960037 412.213135,201.419296 415.089050,200.944977 
	C417.102051,203.208664 418.694611,205.656326 419.984467,208.615936 
	C417.228882,209.418579 414.776306,209.959991 412.323120,209.962784 
	C367.548523,210.013718 322.773865,209.987595 277.999237,210.038712 
	C275.893341,210.041107 273.769226,210.514694 271.687012,210.934540 
	C268.665710,211.543732 265.677887,212.893448 262.670624,212.908661 
	C232.877106,213.059448 203.082397,212.968887 173.288422,213.064194 
	C171.108673,213.071167 168.931824,213.992737 166.394714,214.340622 
	C163.266037,215.287140 160.496292,216.382111 157.719833,217.479736 
	C157.437836,214.641098 157.083481,211.074249 156.729126,207.507401 
z"/>
<path fill="#6A6C63" opacity="1.000000" stroke="none" 
	d="
M431.292664,230.487640 
	C428.716919,231.235550 426.117981,231.946487 423.517975,231.950424 
	C378.581818,232.018417 333.563293,230.311966 288.733612,232.497879 
	C248.008423,234.483673 207.364670,232.940826 166.262802,233.550293 
	C166.364624,230.756439 166.904678,228.365814 167.948181,225.980972 
	C207.944122,224.990448 247.419250,226.401550 286.969513,224.487610 
	C330.963379,222.358612 375.139771,224.019287 419.236572,223.956833 
	C422.193512,223.952652 425.149628,223.329956 428.106110,222.994949 
	C429.160400,225.370514 430.214661,227.746094 431.292664,230.487640 
z"/>
<path fill="#6C6D65" opacity="1.000000" stroke="none" 
	d="
M428.025452,222.660416 
	C425.149628,223.329956 422.193512,223.952652 419.236572,223.956833 
	C375.139771,224.019287 330.963379,222.358612 286.969513,224.487610 
	C247.419250,226.401550 207.944122,224.990448 167.929703,225.543182 
	C167.579742,223.066452 167.751709,221.033295 168.397110,219.000092 
	C201.496872,219.000015 234.123215,219.007828 266.749512,218.980774 
	C268.730865,218.979126 270.729095,218.816818 272.689880,218.528305 
	C278.023773,217.743423 283.315430,216.483337 288.673157,216.098633 
	C294.634979,215.670563 300.651306,216.007401 306.643890,215.999512 
	C345.927155,215.947815 385.210449,215.892944 424.493713,215.839111 
	C425.644104,218.001358 426.794464,220.163620 428.025452,222.660416 
z"/>
<path fill="#818378" opacity="1.000000" stroke="none" 
	d="
M186.491013,164.689240 
	C192.718887,161.430435 198.946777,158.171616 205.844910,155.126373 
	C208.636581,155.559967 210.757828,155.969986 212.879440,155.971909 
	C254.623932,156.009674 296.368683,155.943115 338.112579,156.109451 
	C341.412109,156.122574 344.726562,157.612885 347.994751,158.553345 
	C350.430969,159.254395 352.791443,160.844391 355.206604,160.888351 
	C368.174744,161.124435 381.151031,160.898895 394.120148,161.105637 
	C396.149841,161.138000 398.157196,162.569992 400.174896,163.354782 
	C395.719452,165.146423 391.264008,166.938065 386.028412,168.877090 
	C376.953278,169.349579 368.659271,169.851456 360.362701,169.898743 
	C357.657776,169.914185 354.948883,168.731888 352.236755,168.119797 
	C349.049591,167.400452 345.858490,166.099167 342.666382,166.090790 
	C293.194397,165.960876 243.721970,166.019699 194.249786,165.944138 
	C191.662888,165.940201 189.077240,165.126144 186.491013,164.689240 
z"/>
<path fill="#7C7D73" opacity="1.000000" stroke="none" 
	d="
M399.345642,180.519333 
	C396.421478,181.209763 393.305359,181.943970 390.188019,181.949051 
	C344.717285,182.023254 299.246277,181.952927 253.775925,182.104874 
	C250.711807,182.115097 247.695938,183.978149 244.581543,184.362045 
	C239.410400,184.999466 234.181168,185.334824 228.969574,185.432617 
	C222.270325,185.558319 215.564194,185.251816 208.861282,185.265106 
	C202.332703,185.278030 195.804306,185.553192 189.276154,185.540802 
	C182.574905,185.528091 175.871582,185.377045 169.174133,185.143860 
	C166.251251,185.042099 163.340729,184.584854 160.145325,184.010147 
	C164.250580,180.142975 168.635101,176.554718 173.707581,173.062531 
	C178.629425,174.771500 182.796921,177.524612 187.110077,177.775665 
	C198.398209,178.432755 209.751205,178.084106 221.075287,177.922501 
	C223.319794,177.890472 225.566757,176.961716 227.783615,176.342682 
	C230.366852,175.621323 232.915710,174.110794 235.483826,174.101212 
	C274.459412,173.955536 313.435669,173.999619 352.411774,174.001663 
	C353.744049,174.001740 355.078033,174.076706 356.408325,174.031662 
	C367.795776,173.646194 379.182495,173.241058 390.569458,172.841797 
	C393.430664,175.302521 396.291870,177.763260 399.345642,180.519333 
z"/>
<path fill="#84867B" opacity="1.000000" stroke="none" 
	d="
M400.547974,163.329315 
	C398.157196,162.569992 396.149841,161.138000 394.120148,161.105637 
	C381.151031,160.898895 368.174744,161.124435 355.206604,160.888351 
	C352.791443,160.844391 350.430969,159.254395 347.994751,158.553345 
	C344.726562,157.612885 341.412109,156.122574 338.112579,156.109451 
	C296.368683,155.943115 254.623932,156.009674 212.879440,155.971909 
	C210.757828,155.969986 208.636581,155.559967 206.197845,155.048981 
	C215.335449,151.204147 224.790390,147.650269 234.768982,144.454529 
	C236.824265,145.208130 238.355118,145.945084 239.887634,145.948593 
	C269.713928,146.016464 299.540466,146.026749 329.366547,145.918869 
	C330.913879,145.913269 332.457062,144.749634 334.002167,144.125153 
	C337.093903,145.265167 340.185638,146.405182 343.767578,147.996429 
	C347.237427,149.960754 350.169739,152.657135 353.205017,152.778427 
	C365.206451,153.258011 377.240540,152.855728 389.261719,152.925644 
	C399.230652,152.983627 409.198425,153.245407 419.166718,153.416885 
	C413.084839,156.712540 407.002930,160.008179 400.547974,163.329315 
z"/>
<path fill="#7E7F75" opacity="1.000000" stroke="none" 
	d="
M390.339478,172.580582 
	C379.182495,173.241058 367.795776,173.646194 356.408325,174.031662 
	C355.078033,174.076706 353.744049,174.001740 352.411774,174.001663 
	C313.435669,173.999619 274.459412,173.955536 235.483826,174.101212 
	C232.915710,174.110794 230.366852,175.621323 227.783615,176.342682 
	C225.566757,176.961716 223.319794,177.890472 221.075287,177.922501 
	C209.751205,178.084106 198.398209,178.432755 187.110077,177.775665 
	C182.796921,177.524612 178.629425,174.771500 174.040359,172.996216 
	C177.745483,170.184921 181.805786,167.535995 186.178558,164.788162 
	C189.077240,165.126144 191.662888,165.940201 194.249786,165.944138 
	C243.721970,166.019699 293.194397,165.960876 342.666382,166.090790 
	C345.858490,166.099167 349.049591,167.400452 352.236755,168.119797 
	C354.948883,168.731888 357.657776,169.914185 360.362701,169.898743 
	C368.659271,169.851456 376.953278,169.349579 385.696747,169.035950 
	C387.466644,170.138062 388.788086,171.228714 390.339478,172.580582 
z"/>
<path fill="#6F7067" opacity="1.000000" stroke="none" 
	d="
M424.364899,215.515198 
	C385.210449,215.892944 345.927155,215.947815 306.643890,215.999512 
	C300.651306,216.007401 294.634979,215.670563 288.673157,216.098633 
	C283.315430,216.483337 278.023773,217.743423 272.689880,218.528305 
	C270.729095,218.816818 268.730865,218.979126 266.749512,218.980774 
	C234.123215,219.007828 201.496872,219.000015 168.202484,218.720245 
	C167.274170,217.123322 167.013901,215.806213 166.753632,214.489075 
	C168.931824,213.992737 171.108673,213.071167 173.288422,213.064194 
	C203.082397,212.968887 232.877106,213.059448 262.670624,212.908661 
	C265.677887,212.893448 268.665710,211.543732 271.687012,210.934540 
	C273.769226,210.514694 275.893341,210.041107 277.999237,210.038712 
	C322.773865,209.987595 367.548523,210.013718 412.323120,209.962784 
	C414.776306,209.959991 417.228882,209.418579 420.103699,208.946106 
	C421.762451,210.906631 422.999268,213.048950 424.364899,215.515198 
z"/>
<path fill="#39114E" opacity="1.000000" stroke="none" 
	d="
M326.097137,462.747803 
	C328.296570,467.881439 330.495972,473.015106 332.984039,478.822510 
	C307.405640,489.649994 281.150452,494.513947 254.592148,498.940674 
	C266.562958,486.960999 278.772736,475.245483 291.054596,463.606049 
	C293.208496,461.564819 295.664764,459.842651 297.977112,458.345520 
	C296.774109,461.519012 295.575348,464.320099 294.376556,467.121216 
	C294.723907,467.595856 295.071259,468.070526 295.418579,468.545166 
	C302.005585,464.695068 308.592560,460.844940 315.476379,457.159546 
	C319.214478,459.132111 322.655823,460.939972 326.097137,462.747803 
z"/>
<path fill="#42433E" opacity="1.000000" stroke="none" 
	d="
M350.171051,332.441711 
	C352.906555,331.961182 355.640472,331.074219 358.377838,331.063232 
	C384.591461,330.958038 410.805664,331.000854 437.485138,331.001892 
	C435.934174,337.188354 433.917786,343.374084 431.203796,349.818176 
	C410.911102,350.078491 391.316010,350.080475 371.465302,349.868591 
	C367.022034,340.463898 359.404236,335.465607 350.171051,332.441711 
z"/>
<path fill="#22221F" opacity="1.000000" stroke="none" 
	d="
M315.179565,456.994843 
	C308.592560,460.844940 302.005585,464.695068 295.418579,468.545166 
	C295.071259,468.070526 294.723907,467.595856 294.376556,467.121216 
	C295.575348,464.320099 296.774109,461.519012 297.985168,458.358429 
	C297.997498,457.998962 297.973389,457.995911 298.190918,457.861511 
	C298.576874,457.434509 298.745361,457.141907 299.087860,456.544189 
	C301.810516,447.812347 304.359131,439.385620 306.951965,430.589966 
	C307.339050,428.814362 307.681946,427.407715 308.024811,426.001068 
	C326.454071,426.017639 344.883362,426.034180 363.799225,426.073975 
	C360.323730,440.165344 354.686371,453.036469 340.604126,459.934479 
	C347.132751,449.115570 345.627014,438.527740 340.586426,427.789215 
	C335.042236,434.995789 329.603851,442.064819 323.809265,449.530212 
	C320.695221,452.282684 317.937408,454.638763 315.179565,456.994843 
z"/>
<path fill="#8C8C8D" opacity="1.000000" stroke="none" 
	d="
M243.091644,459.028992 
	C243.083466,457.380249 243.021637,455.729706 243.077545,454.083191 
	C243.225479,449.725983 244.929337,446.828705 249.523697,445.426025 
	C255.364716,443.642700 260.976227,441.107666 267.342621,438.596313 
	C276.686890,435.209595 285.375275,432.123322 294.464722,429.033813 
	C298.472229,428.562164 302.448975,426.043243 304.706604,430.887451 
	C300.188599,429.510529 297.430908,430.519836 294.818329,434.438416 
	C287.475555,445.451752 279.591248,456.104004 271.542664,466.938293 
	C264.658325,469.185638 258.151855,471.393311 251.153290,473.767975 
	C249.591034,468.071014 248.182541,462.934814 246.769424,457.781708 
	C245.232468,458.302948 244.162048,458.665985 243.091644,459.028992 
z"/>
<path fill="#54554E" opacity="1.000000" stroke="none" 
	d="
M146.958069,279.001892 
	C145.984802,287.058044 145.011520,295.114197 143.530334,303.562012 
	C136.349350,303.968719 129.676270,303.983795 123.003181,303.998871 
	C122.835793,303.955139 122.668404,303.911377 121.919556,303.683838 
	C116.516571,303.330048 111.695023,303.160065 106.873482,302.990051 
	C106.968498,295.186371 107.063515,287.382690 107.764313,279.223785 
	C121.232742,278.913025 134.095398,278.957458 146.958069,279.001892 
z"/>
<path fill="#30302C" opacity="1.000000" stroke="none" 
	d="
M419.036530,398.553406 
	C398.465027,399.003540 378.003082,399.018127 357.541229,398.980347 
	C355.573303,398.976715 353.605957,398.647339 351.505737,397.931244 
	C356.903320,392.561127 362.433502,387.728912 368.271698,383.159302 
	C372.016937,383.374237 375.455414,383.242981 378.891235,383.293579 
	C392.647400,383.496185 406.402771,383.755219 420.158417,383.993347 
	C419.820984,388.696655 419.483551,393.399994 419.036530,398.553406 
z"/>
<path fill="#363733" opacity="1.000000" stroke="none" 
	d="
M420.371094,383.665863 
	C406.402771,383.755219 392.647400,383.496185 378.891235,383.293579 
	C375.455414,383.242981 372.016937,383.374237 368.323730,382.812378 
	C370.084869,376.803345 372.101959,371.403839 374.580261,366.003265 
	C391.429840,365.999084 407.818237,365.996002 424.206635,365.992920 
	C422.998993,371.774750 421.791382,377.556549 420.371094,383.665863 
z"/>
<path fill="#504175" opacity="1.000000" stroke="none" 
	d="
M271.920532,466.898651 
	C279.591248,456.104004 287.475555,445.451752 294.818329,434.438416 
	C297.430908,430.519836 300.188599,429.510529 305.006897,430.939789 
	C306.101227,430.975128 306.504486,430.967041 306.907776,430.958923 
	C304.359131,439.385620 301.810516,447.812347 298.889465,456.699890 
	C298.335785,457.439087 298.154572,457.717499 297.973389,457.995911 
	C297.973389,457.995911 297.997498,457.998962 297.989441,457.986053 
	C295.664764,459.842651 293.208496,461.564819 291.054596,463.606049 
	C278.772736,475.245483 266.562958,486.960999 254.168808,498.957581 
	C253.525726,498.876770 252.569809,498.255707 252.629059,498.135620 
	C253.851135,495.659058 255.188705,493.239471 256.828918,490.204437 
	C262.076477,482.033081 266.998505,474.465851 271.920532,466.898651 
z"/>
<path fill="#3C3D38" opacity="1.000000" stroke="none" 
	d="
M424.437897,365.728790 
	C407.818237,365.996002 391.429840,365.999084 374.516785,365.557373 
	C373.235077,360.102539 372.477997,355.092529 371.720947,350.082489 
	C391.316010,350.080475 410.911102,350.078491 431.008118,350.107941 
	C429.229767,355.247803 426.949463,360.356232 424.437897,365.728790 
z"/>
<path fill="#6F6F70" opacity="1.000000" stroke="none" 
	d="
M271.542664,466.938293 
	C266.998505,474.465851 262.076477,482.033081 256.975769,489.914307 
	C247.136063,491.651764 237.476624,493.085999 227.812805,494.490204 
	C225.710968,494.795593 223.593491,494.993378 220.198700,495.391235 
	C222.348587,491.215057 223.744019,487.748901 225.776764,484.708893 
	C230.386627,477.814758 235.332123,471.145691 240.089127,464.348724 
	C241.120773,462.874756 241.933777,461.247742 242.969559,459.360107 
	C244.162048,458.665985 245.232468,458.302948 246.769424,457.781708 
	C248.182541,462.934814 249.591034,468.071014 251.153290,473.767975 
	C258.151855,471.393311 264.658325,469.185638 271.542664,466.938293 
z"/>
<path fill="#898A80" opacity="1.000000" stroke="none" 
	d="
M419.438629,153.329376 
	C409.198425,153.245407 399.230652,152.983627 389.261719,152.925644 
	C377.240540,152.855728 365.206451,153.258011 353.205017,152.778427 
	C350.169739,152.657135 347.237427,149.960754 344.083405,148.131012 
	C343.634186,141.603119 343.220184,135.393631 343.143372,129.179962 
	C343.105103,126.083359 343.684265,122.979118 344.526367,119.448151 
	C348.790131,118.975945 352.511658,118.933929 356.233215,118.891907 
	C359.564941,126.651222 362.664276,134.522034 366.313202,142.129227 
	C368.602661,146.902283 372.544281,149.157791 378.324188,149.025269 
	C393.607361,148.674866 408.903900,148.906540 424.690155,149.878876 
	C423.030304,150.999878 421.370422,152.120865 419.438629,153.329376 
z"/>
<path fill="#5B5C55" opacity="1.000000" stroke="none" 
	d="
M147.129700,278.634705 
	C134.095398,278.957458 121.232742,278.913025 107.860176,278.811554 
	C108.291916,272.027679 109.233551,265.300842 110.307823,258.216736 
	C121.977051,257.906433 133.514099,257.912170 145.049789,258.040955 
	C146.962616,258.062317 148.869431,258.620636 151.103210,259.261444 
	C150.052063,265.817200 148.676697,272.042358 147.129700,278.634705 
z"/>
<path fill="#898A80" opacity="1.000000" stroke="none" 
	d="
M333.646545,143.963715 
	C332.457062,144.749634 330.913879,145.913269 329.366547,145.918869 
	C299.540466,146.026749 269.713928,146.016464 239.887634,145.948593 
	C238.355118,145.945084 236.824265,145.208130 235.146042,144.450882 
	C261.202972,135.337250 287.906921,134.944534 314.851044,139.530396 
	C321.060150,140.587189 327.147522,142.359329 333.646545,143.963715 
z"/>
<path fill="#6C6D65" opacity="1.000000" stroke="none" 
	d="
M131.621857,207.984070 
	C136.005417,208.535858 140.103928,209.277802 144.557831,210.363556 
	C139.269073,218.959091 137.253220,228.126236 138.028107,237.997467 
	C130.883148,237.970428 123.738190,237.943375 116.098427,237.879501 
	C118.994659,226.970367 124.223793,217.072784 131.621857,207.984070 
z"/>
<path fill="#41413C" opacity="1.000000" stroke="none" 
	d="
M143.791611,337.003906 
	C146.581619,348.949371 149.371613,360.894897 152.155350,372.813629 
	C140.142761,365.270050 133.244324,353.614685 129.129379,339.450867 
	C134.206009,338.187042 138.998810,337.595459 143.791611,337.003906 
z"/>
<path fill="#4B4C46" opacity="1.000000" stroke="none" 
	d="
M123.022415,304.459869 
	C129.676270,303.983795 136.349350,303.968719 143.433151,303.981079 
	C143.518417,309.374390 143.192963,314.740234 142.341064,320.561249 
	C136.001526,321.064087 130.188431,321.111725 124.375328,321.159363 
	C123.930763,315.746521 123.486206,310.333710 123.022415,304.459869 
z"/>
<path fill="#494A44" opacity="1.000000" stroke="none" 
	d="
M121.023346,317.999634 
	C121.430565,331.190857 121.837784,344.382080 122.261559,358.109680 
	C114.277588,345.982178 110.342033,332.727112 108.674896,318.401642 
	C113.103180,318.002136 117.063271,318.000885 121.023346,317.999634 
z"/>
<path fill="#42433E" opacity="1.000000" stroke="none" 
	d="
M124.390617,321.578613 
	C130.188431,321.111725 136.001526,321.064087 142.264893,321.014893 
	C142.839981,323.710297 142.964813,326.407257 143.183075,329.544556 
	C143.476212,332.064484 143.675919,334.144043 143.833618,336.613739 
	C138.998810,337.595459 134.206009,338.187042 129.108429,339.088196 
	C127.337738,333.597809 125.871819,327.797821 124.390617,321.578613 
z"/>
<path fill="#4B4C46" opacity="1.000000" stroke="none" 
	d="
M121.149918,317.564026 
	C117.063271,318.000885 113.103180,318.002136 108.695587,318.004211 
	C107.740654,313.303162 107.233223,308.601318 106.799637,303.444763 
	C111.695023,303.160065 116.516571,303.330048 121.668167,303.748291 
	C121.757645,308.373840 121.517059,312.751129 121.149918,317.564026 
z"/>
<path fill="#97998D" opacity="1.000000" stroke="none" 
	d="
M356.208221,118.487778 
	C352.511658,118.933929 348.790131,118.975945 344.617401,119.023262 
	C346.129944,111.835571 348.093689,104.642593 350.057434,97.449608 
	C350.701874,97.541153 351.346313,97.632706 351.990753,97.724251 
	C353.388245,104.510719 354.785736,111.297188 356.208221,118.487778 
z"/>
<path fill="#FFDDD4" opacity="1.000000" stroke="none" 
	d="
M294.063660,429.037048 
	C285.375275,432.123322 276.686890,435.209595 267.627686,438.403687 
	C266.852173,437.271240 266.447510,436.030945 266.015442,434.402832 
	C275.057800,430.728424 284.127533,427.441864 293.583435,424.519867 
	C294.000946,426.268646 294.032288,427.652863 294.063660,429.037048 
z"/>
<path fill="#504175" opacity="1.000000" stroke="none" 
	d="
M315.476379,457.159546 
	C317.937408,454.638763 320.695221,452.282684 323.806091,449.882690 
	C326.691803,454.264771 329.224487,458.690796 331.757202,463.116821 
	C331.428619,463.403900 331.100037,463.690948 330.771454,463.978027 
	C329.511475,463.560364 328.251465,463.142700 326.544312,462.736420 
	C322.655823,460.939972 319.214478,459.132111 315.476379,457.159546 
z"/>
<path fill="#FFDDD4" opacity="1.000000" stroke="none" 
	d="
M147.970490,384.338806 
	C149.400284,383.673279 150.820114,383.107025 152.258911,383.053894 
	C154.662277,382.965088 158.007050,382.517273 157.741943,386.108643 
	C157.582581,388.267761 155.927933,390.975586 154.111557,392.201752 
	C151.254105,394.130646 149.763123,391.367523 148.613190,389.108368 
	C148.250671,388.396149 148.190094,387.530243 147.954742,386.360779 
	C147.935104,385.547455 147.952072,385.108063 147.970490,384.338806 
z"/>
<path fill="#412A1B" opacity="1.000000" stroke="none" 
	d="
M204.251816,360.902039 
	C204.307571,354.097717 203.633514,347.181366 204.655502,340.525421 
	C205.439438,335.419922 208.362686,330.642944 210.613907,325.022217 
	C207.191025,325.318207 203.036774,325.677460 198.503174,325.710266 
	C199.090179,322.899567 200.056564,320.415314 201.022949,317.931061 
	C210.114746,315.803833 218.824371,316.832367 227.245941,320.886414 
	C238.886276,326.489960 248.476089,334.450287 255.925110,345.039856 
	C257.721588,347.593719 257.851227,349.561554 255.705612,352.005676 
	C253.421951,354.607086 251.575912,357.592651 249.191803,360.890503 
	C241.570511,349.607941 234.201080,338.526337 222.678314,330.261627 
	C221.307220,329.582092 220.462189,329.288483 219.617157,328.994873 
	C219.516098,329.267670 219.415054,329.540497 219.313995,329.813293 
	C220.127533,330.300018 220.941071,330.786713 221.754608,331.273438 
	C226.907486,340.581055 229.622681,350.561218 229.542557,361.625092 
	C220.802673,361.677826 212.527252,361.289948 204.251816,360.902039 
z"/>
<path fill="#FEFEFD" opacity="1.000000" stroke="none" 
	d="
M294.464752,429.033813 
	C294.032288,427.652863 294.000946,426.268646 293.947449,424.471497 
	C298.052612,421.696991 302.179901,419.335480 306.307190,416.973969 
	C306.265106,416.392334 306.223022,415.810699 306.180939,415.229065 
	C303.454193,415.229065 300.641113,414.786926 298.014526,415.299866 
	C279.095001,418.994720 260.223877,422.937103 241.305542,426.638367 
	C239.073669,427.075012 235.300140,427.403961 234.562210,426.271057 
	C232.192261,422.632599 230.729355,418.341797 229.419189,414.145691 
	C229.237381,413.563416 231.882126,412.098541 233.750885,411.342590 
	C236.076996,415.858917 238.668961,416.494812 242.987045,414.662384 
	C261.242310,406.915588 279.645477,399.517365 298.232513,392.248169 
	C299.355133,394.611755 300.043915,396.830841 301.169220,398.800507 
	C302.983551,401.976227 304.259399,405.891571 308.964447,405.991272 
	C308.605652,412.355164 308.246857,418.719055 307.956451,425.541992 
	C307.681946,427.407715 307.339050,428.814362 306.951965,430.589966 
	C306.504486,430.967041 306.101227,430.975128 305.397675,430.930908 
	C302.448975,426.043243 298.472229,428.562164 294.464752,429.033813 
z"/>
<path fill="#F3F1E2" opacity="1.000000" stroke="none" 
	d="
M297.994598,391.991699 
	C279.645477,399.517365 261.242310,406.915588 242.987045,414.662384 
	C238.668961,416.494812 236.076996,415.858917 234.125473,411.332458 
	C237.179825,408.558105 240.239838,405.858032 243.631119,403.671814 
	C257.389893,394.802094 271.244171,386.080353 285.087128,377.341858 
	C286.034363,376.743927 287.177429,376.456268 288.856049,376.226959 
	C291.960297,380.270294 294.437958,384.111023 297.164856,388.213501 
	C297.607605,389.647400 297.801086,390.819550 297.994598,391.991699 
z"/>
<path fill="#EF9D4A" opacity="1.000000" stroke="none" 
	d="
M204.249939,361.304626 
	C212.527252,361.289948 220.802673,361.677826 229.491028,362.070007 
	C228.945572,369.577271 228.945938,377.371490 226.778305,384.507141 
	C224.250793,392.827545 216.724792,393.621887 212.703079,385.903442 
	C208.796143,378.405243 206.981491,369.816895 204.249939,361.304626 
z"/>
<path fill="#41413C" opacity="1.000000" stroke="none" 
	d="
M271.375793,331.460693 
	C276.580444,331.346222 281.682465,331.680695 287.226288,332.013916 
	C283.475128,350.150421 275.805603,366.577148 263.889252,380.945984 
	C268.147644,364.807007 270.448608,348.473328 271.375793,331.460693 
z"/>
<path fill="#4B4C46" opacity="1.000000" stroke="none" 
	d="
M201.022308,317.538025 
	C200.056564,320.415314 199.090179,322.899567 198.081146,325.747925 
	C194.232986,334.889832 189.750870,343.175629 181.639359,348.939819 
	C188.737610,333.771088 188.829239,317.922638 187.710098,301.442902 
	C193.440643,301.013428 198.673096,301.009430 203.905533,301.005402 
	C202.944260,306.385254 201.982971,311.765106 201.022308,317.538025 
z"/>
<path fill="#575851" opacity="1.000000" stroke="none" 
	d="
M169.979187,271.498840 
	C171.802872,270.435303 173.670258,269.144135 175.567459,269.098724 
	C185.167603,268.868958 194.775513,268.963013 204.875107,268.917786 
	C205.507690,273.293640 205.645844,277.695221 205.246948,282.551392 
	C197.559219,283.004517 190.406204,282.903595 183.259384,283.069519 
	C181.403259,283.112610 179.566513,283.989899 177.720856,284.484070 
	C175.159454,280.271271 172.598053,276.058502 169.979187,271.498840 
z"/>
<path fill="#54554E" opacity="1.000000" stroke="none" 
	d="
M177.811768,284.805725 
	C179.566513,283.989899 181.403259,283.112610 183.259384,283.069519 
	C190.406204,282.903595 197.559219,283.004517 205.152283,283.004761 
	C205.645065,283.163513 205.695511,283.323456 205.444748,284.000183 
	C202.883530,285.036835 200.624283,285.560028 198.363251,286.075439 
	C196.746048,286.444092 195.126434,286.802155 193.507889,287.164948 
	C193.609970,287.806396 193.712051,288.447876 193.814148,289.089325 
	C197.664825,289.089325 201.515518,289.089325 205.366211,289.089325 
	C204.969559,292.800873 204.572906,296.512390 204.040894,300.614685 
	C198.673096,301.009430 193.440643,301.013428 187.761017,301.018219 
	C184.176773,295.721771 181.039719,290.424591 177.811768,284.805725 
z"/>
<path fill="#DCC3BD" opacity="1.000000" stroke="none" 
	d="
M296.915588,387.951721 
	C294.437958,384.111023 291.960297,380.270294 289.219727,376.212769 
	C292.286987,368.128418 295.578033,360.243652 299.015839,352.423401 
	C299.316711,351.739105 300.580780,351.478241 301.769623,351.002136 
	C302.141785,350.983582 302.597229,350.996918 302.667542,351.397949 
	C301.138763,355.016602 298.501556,358.122894 298.142365,361.473419 
	C297.202301,370.242584 297.257263,379.118408 296.915588,387.951721 
z"/>
<path fill="#7E7F75" opacity="1.000000" stroke="none" 
	d="
M205.747437,289.129211 
	C201.515518,289.089325 197.664825,289.089325 193.814148,289.089325 
	C193.712051,288.447876 193.609970,287.806396 193.507889,287.164948 
	C195.126434,286.802155 196.746048,286.444092 198.363251,286.075439 
	C200.624283,285.560028 202.883530,285.036835 205.401459,284.247986 
	C207.142166,284.946350 208.503571,286.307922 210.130005,286.808777 
	C215.492050,288.459869 220.978210,289.705353 226.353928,291.316162 
	C227.970612,291.800568 229.382401,292.968903 230.461777,294.807648 
	C222.350739,292.928131 214.239700,291.048584 205.747437,289.129211 
z"/>
<path fill="#DCC3BD" opacity="1.000000" stroke="none" 
	d="
M177.320557,417.187378 
	C178.496674,416.627686 179.722443,415.798309 180.273529,416.121002 
	C184.587097,418.647217 188.771194,421.394562 192.995255,424.073639 
	C192.640625,424.761780 192.285995,425.449921 191.931366,426.138062 
	C189.989258,425.209747 187.867661,424.532501 186.143341,423.299622 
	C182.813873,420.919006 179.693008,418.399170 175.839630,423.158203 
	C175.519287,422.781036 175.198944,422.403870 174.878616,422.026703 
	C175.604950,420.501617 176.331284,418.976501 177.320557,417.187378 
z"/>
<path fill="#50514B" opacity="1.000000" stroke="none" 
	d="
M290.390015,315.462219 
	C290.236511,315.039520 290.299622,314.585175 290.362732,314.130798 
	C290.560822,314.329437 290.758911,314.528107 290.971252,314.968811 
	C290.985474,315.210876 290.606659,315.430511 290.390015,315.462219 
z"/>
<path fill="#FBF8F3" opacity="1.000000" stroke="none" 
	d="
M138.184937,238.323486 
	C137.253220,228.126236 139.269073,218.959091 145.021439,210.371567 
	C146.733490,208.686279 148.238983,207.191391 149.965607,206.023392 
	C152.221512,204.497314 154.496933,204.229706 156.471100,207.235046 
	C157.083481,211.074249 157.437836,214.641098 157.719833,217.479736 
	C160.496292,216.382111 163.266037,215.287140 166.394714,214.340637 
	C167.013901,215.806213 167.274170,217.123322 167.729050,218.720291 
	C167.751709,221.033295 167.579742,223.066452 167.426270,225.537384 
	C166.904678,228.365814 166.364624,230.756439 165.777679,233.529114 
	C164.837280,235.012817 163.943771,236.114471 162.428833,237.982315 
	C159.780762,234.533768 157.524002,231.594803 155.267242,228.655838 
	C155.918060,229.087051 156.568863,229.518265 157.219681,229.949493 
	C152.831497,233.391220 148.443329,236.832932 143.869232,240.559967 
	C141.902802,240.113358 140.122284,239.381439 138.184937,238.323486 
z"/>
<path fill="#FEF5EF" opacity="1.000000" stroke="none" 
	d="
M297.164856,388.213501 
	C297.257263,379.118408 297.202301,370.242584 298.142365,361.473419 
	C298.501556,358.122894 301.138763,355.016602 302.874512,351.493225 
	C311.555725,342.939606 320.506622,335.096100 332.572906,332.814301 
	C337.997223,331.788574 343.744293,332.469727 349.757996,332.409027 
	C359.404236,335.465607 367.022034,340.463898 371.465302,349.868591 
	C372.477997,355.092529 373.235077,360.102539 374.055603,365.558472 
	C372.101959,371.403839 370.084869,376.803345 368.015747,382.549774 
	C362.433502,387.728912 356.903320,392.561127 351.180237,397.671265 
	C338.044983,404.471832 324.345764,407.121002 309.434875,405.983978 
	C304.259399,405.891571 302.983551,401.976227 301.169220,398.800507 
	C300.043915,396.830841 299.355133,394.611755 298.232513,392.248169 
	C297.801086,390.819550 297.607605,389.647400 297.164856,388.213501 
M323.555817,378.955170 
	C321.660278,380.552795 319.468262,381.908478 317.928070,383.796021 
	C314.190613,388.376373 315.623352,393.327728 321.066162,395.583160 
	C330.033539,399.299072 344.216644,395.331787 348.980896,387.048615 
	C350.489319,384.426086 350.757416,380.128998 349.685516,377.328430 
	C348.994659,375.523560 344.910553,374.469177 342.205994,374.092651 
	C335.712250,373.188477 329.759460,375.362000 323.555817,378.955170 
z"/>
<path fill="#39114E" opacity="1.000000" stroke="none" 
	d="
M298.190918,457.861511 
	C298.154572,457.717499 298.335785,457.439087 298.715393,457.005005 
	C298.745361,457.141907 298.576874,457.434509 298.190918,457.861511 
z"/>
<path fill="#FEF5EF" opacity="1.000000" stroke="none" 
	d="
M221.971542,331.035645 
	C220.941071,330.786713 220.127533,330.300018 219.313995,329.813293 
	C219.415054,329.540497 219.516098,329.267670 219.617157,328.994873 
	C220.462189,329.288483 221.307220,329.582092 222.384872,330.096771 
	C222.474472,330.477875 222.331467,330.637878 221.971542,331.035645 
z"/>
<path fill="#FFDDD4" opacity="1.000000" stroke="none" 
	d="
M323.853027,378.740479 
	C329.759460,375.362000 335.712250,373.188477 342.205994,374.092651 
	C344.910553,374.469177 348.994659,375.523560 349.685516,377.328430 
	C350.757416,380.128998 350.489319,384.426086 348.980896,387.048615 
	C344.216644,395.331787 330.033539,399.299072 321.066162,395.583160 
	C315.623352,393.327728 314.190613,388.376373 317.928070,383.796021 
	C319.468262,381.908478 321.660278,380.552795 323.853027,378.740479 
z"/>
</svg>