<?xml version="1.0" encoding="UTF-8"?>
<svg version="1.1" xmlns="http://www.w3.org/2000/svg" width="566" height="565">
<path d="M0 0 C0.99741211 0.17160645 1.99482422 0.34321289 3.02246094 0.52001953 C53.62753391 9.54569321 101.92588846 33.12528921 139.77734375 67.9609375 C141.79562103 69.81250295 143.85349135 71.59833 145.9375 73.375 C153.93021567 80.36862621 161.17161953 87.90623185 167.7734375 96.22265625 C169.24086321 98.05307674 170.7458807 99.85407159 172.2890625 101.62109375 C184.96368382 116.17420129 195.18883415 132.87300262 204 150 C204.4120166 150.79809082 204.8240332 151.59618164 205.24853516 152.41845703 C224.55029045 190.25820243 234.21809433 231.21371409 234.25 273.625 C234.25101212 274.84320938 234.25101212 274.84320938 234.25204468 276.08602905 C234.16654712 341.30468311 210.69081291 404.63060997 168 454 C167.29488281 454.83402344 166.58976562 455.66804688 165.86328125 456.52734375 C153.85937545 470.32358127 140.73408399 483.16718209 126 494 C124.58460938 495.10794922 124.58460938 495.10794922 123.140625 496.23828125 C67.43826513 539.55379037 -6.15645689 557.77253329 -75.875 549.8125 C-130.35808994 542.76800673 -181.3660592 521.00179739 -223 485 C-223.83402344 484.29488281 -224.66804688 483.58976562 -225.52734375 482.86328125 C-238.28707973 471.76122037 -250.86558781 459.5648225 -261 446 C-261.40557129 445.47083984 -261.81114258 444.94167969 -262.22900391 444.39648438 C-307.13748813 385.80144696 -327.90033811 311.41160287 -318.40844727 238 C-310.01034712 179.65628592 -285.07169599 125.51575399 -244 83 C-243.3198584 82.29262695 -242.6397168 81.58525391 -241.93896484 80.85644531 C-232.49379028 71.0792383 -222.93628598 62.07233776 -212 54 C-211.05511719 53.26007812 -210.11023438 52.52015625 -209.13671875 51.7578125 C-151.2055191 6.72692149 -72.23500762 -12.47739852 0 0 Z " fill="#60605E" transform="translate(326,8)"/>
<path d="M0 0 C2.36871034 2.36871034 2.49068703 3.52814072 3.11328125 6.76953125 C3.30647949 7.73487793 3.49967773 8.70022461 3.69873047 9.69482422 C4.00254639 11.23807373 4.00254639 11.23807373 4.3125 12.8125 C7.24814463 26.87451987 10.56531398 38.56531398 21 49 C23.34409571 49.33116738 23.34409571 49.33116738 26.09228516 49.31884766 C27.15323395 49.33871735 28.21418274 49.35858704 29.30728149 49.37905884 C30.45626923 49.39061005 31.60525696 49.40216125 32.7890625 49.4140625 C33.96262299 49.43342865 35.13618347 49.4527948 36.3453064 49.4727478 C40.10512961 49.53267664 43.86498323 49.57898246 47.625 49.625 C50.16928442 49.6631675 52.71355575 49.70221849 55.2578125 49.7421875 C61.50509241 49.83838905 67.75245072 49.92339738 74 50 C71.51594565 52.53282208 69.29392195 54.62101637 66.19921875 56.3671875 C65.47589355 56.77533691 64.75256836 57.18348633 64.00732422 57.60400391 C63.24178223 58.02343262 62.47624023 58.44286133 61.6875 58.875 C60.89875488 59.31118652 60.11000977 59.74737305 59.29736328 60.19677734 C52.08648867 64.10381292 44.70592767 67.20404394 37 70 C40.32194083 73.38179562 43.74681488 76.56559045 47.3125 79.6875 C57.8724964 89.31697602 64.88287383 100.74315739 72 113 C72.41459473 113.70576172 72.82918945 114.41152344 73.25634766 115.13867188 C79.90496262 126.570288 84.21395681 138.355218 88 151 C88.33902344 152.10730469 88.67804688 153.21460938 89.02734375 154.35546875 C92.3047197 165.65507836 93.3638831 176.76047301 93.3125 188.5 C93.30831055 189.81355469 93.30412109 191.12710938 93.29980469 192.48046875 C93.02285341 216.54576661 87.24175799 239.08923341 76.8125 260.75 C71.02558731 272.9600828 69.80111857 285.45853079 69.6875 298.8125 C69.64399414 300.49956055 69.64399414 300.49956055 69.59960938 302.22070312 C69.51824123 312.99259339 72.40997023 320.57940641 79 329 C69.11420507 329.66521237 62.46650532 328.05301462 54.75 321.75 C50.98805556 318.27282427 48.4890717 314.43787978 46 310 C45.34 309.01 44.68 308.02 44 307 C43.66356992 323.65328876 43.46941749 341.08458739 54 355 C37.96975263 348.98500736 25.01146635 337.68338347 15 324 C14.56300781 325.43279297 14.56300781 325.43279297 14.1171875 326.89453125 C10.02645348 339.96078703 5.15865925 351.30781269 -6 360 C-9.3125 361.27734375 -9.3125 361.27734375 -12 362 C-11.72285156 361.46890625 -11.44570313 360.9378125 -11.16015625 360.390625 C-10.79792969 359.68421875 -10.43570313 358.9778125 -10.0625 358.25 C-9.52302734 357.20585938 -9.52302734 357.20585938 -8.97265625 356.140625 C-5.46250509 348.41547305 -6.74314392 340.80407121 -9.24609375 332.96875 C-9.83584077 331.02833414 -9.83584077 331.02833414 -11 330 C-11.32871094 330.53367187 -11.65742188 331.06734375 -11.99609375 331.6171875 C-16.07045706 337.99925252 -20.82231407 343.48864098 -26 349 C-24.50428886 352.86728916 -22.75262672 356.47864914 -20.8046875 360.1328125 C-20 362 -20 362 -20 365 C-21.32 364.67 -22.64 364.34 -24 364 C-23.62746094 364.80824219 -23.25492188 365.61648438 -22.87109375 366.44921875 C-22.39800781 367.51785156 -21.92492187 368.58648437 -21.4375 369.6875 C-20.96183594 370.74324219 -20.48617187 371.79898437 -19.99609375 372.88671875 C-18.89947137 376.31420123 -18.75576879 377.65989075 -20 381 C-22.45581055 382.44140625 -22.45581055 382.44140625 -25.69921875 383.5625 C-26.88177246 383.975 -28.06432617 384.3875 -29.28271484 384.8125 C-35.09542917 386.66939232 -40.92287104 388.40331692 -46.8125 390 C-48.06063477 390.3417627 -49.30876953 390.68352539 -50.59472656 391.03564453 C-61.47632898 393.96254419 -72.43000249 396.35536534 -83.49023438 398.49511719 C-86.68371682 399.13754148 -89.85162762 399.87534498 -93.01855469 400.63720703 C-95 401 -95 401 -99 401 C-97.94124926 397.59687262 -96.99097846 394.98646769 -95 392 C-106.31195332 393.3468018 -106.31195332 393.3468018 -117.5625 395.125 C-121.79857596 395.86472404 -125.70745301 396.19511577 -130 396 C-126.70026559 385.22827084 -120.0554013 376.42993226 -113.13671875 367.71484375 C-108.90870149 362.3428657 -108.65219412 358.93522203 -108.34375 352.2265625 C-106.53000138 347.87145681 -104.41949092 347.1220866 -100.20507812 345.26416016 C-94.39876332 342.97400948 -88.57307611 340.76258219 -82.69580078 338.66064453 C-80.50171448 337.87561343 -78.31121847 337.08116445 -76.12109375 336.28515625 C-53.72525632 328.18210624 -53.72525632 328.18210624 -48 329 C-46.02 330.485 -46.02 330.485 -44 332 C-43.34 323.75 -42.68 315.5 -42 307 C-39.339375 306.9175 -36.67875 306.835 -33.9375 306.75 C-17.78231087 305.96079708 -0.64947264 301.38327241 11.32421875 289.87109375 C19.22230697 281.05248243 22.68594003 271.74582835 22.3515625 259.890625 C21.80439032 255.39165378 20.28066987 251.88087758 18 248 C17.63777344 247.36191406 17.27554687 246.72382813 16.90234375 246.06640625 C12.42113029 239.00279859 5.97722856 235.90375254 -2 234 C-16.31919034 232.80802416 -26.51659475 235.46064057 -38 244 C-40.77023042 246.36107715 -43.45595039 248.77778278 -46.1015625 251.27734375 C-48 253 -48 253 -49 253 C-49.30292969 251.71867188 -49.60585938 250.43734375 -49.91796875 249.1171875 C-52.18210785 239.71258236 -54.62348489 230.60011643 -58.08203125 221.5546875 C-59 219 -59 219 -59 217 C-59.66 217 -60.32 217 -61 217 C-61.02578125 217.76441406 -61.0515625 218.52882813 -61.078125 219.31640625 C-62.35661706 243.4624722 -73.04042513 264.75048096 -87 284 C-88.10299761 280.69100718 -87.89367104 279.71014385 -87.07421875 276.421875 C-86.85443359 275.50664062 -86.63464844 274.59140625 -86.40820312 273.6484375 C-86.17037109 272.69195312 -85.93253906 271.73546875 -85.6875 270.75 C-81.73046757 254.83168151 -80.65668532 239.38411058 -80.375 223.0625 C-80.33670558 221.20376006 -80.29764778 219.34503568 -80.2578125 217.48632812 C-80.16309894 212.99101577 -80.07862942 208.49562126 -80 204 C-80.91209229 203.70738281 -81.82418457 203.41476562 -82.76391602 203.11328125 C-105.38466291 195.33126647 -129.79522541 177.2457295 -145 159 C-145 168.57 -145 178.14 -145 188 C-142.36 188 -139.72 188 -137 188 C-133.515625 188.8046875 -133.515625 188.8046875 -130.25 189.875 C-129.16203125 190.22304688 -128.0740625 190.57109375 -126.953125 190.9296875 C-124.51433418 191.81358788 -122.27911938 192.77193082 -120 194 C-120 194.66 -120 195.32 -120 196 C-125.55976728 195.19651204 -130.93857355 193.82181116 -136.375 192.4375 C-137.30183594 192.20353516 -138.22867188 191.96957031 -139.18359375 191.72851562 C-141.45628078 191.15448643 -143.72838595 190.57825799 -146 190 C-145.98984863 190.56630127 -145.97969727 191.13260254 -145.96923828 191.71606445 C-145.91893678 196.62456746 -146.1597966 201.31861529 -146.875 206.1875 C-147.03742188 207.33605469 -147.19984375 208.48460937 -147.3671875 209.66796875 C-147.98391638 212.91531278 -148.87851017 215.89469833 -150 219 C-149.34 218.67 -148.68 218.34 -148 218 C-131.08588577 216.46832083 -118.85984524 222.48018437 -106 233 C-100.54747888 237.70665738 -96.48563298 242.69904808 -93 249 C-95.3836813 253.34170523 -97.78119883 257.2064129 -101 261 C-104.78720957 259.73759681 -105.05209944 258.59145623 -107 255.1875 C-113.01732224 245.40458075 -121.11162422 237.23294763 -130 230 C-129.01881096 231.975519 -128.02968058 233.94376921 -127 235.89453125 C-122.36872766 244.77716688 -121.52313793 253.07414604 -121 263 C-122.134375 262.835 -123.26875 262.67 -124.4375 262.5 C-131.92138718 261.64572992 -139.48015007 261.92229776 -147 262 C-147.11795981 258.54196269 -147.18782752 255.08445443 -147.25 251.625 C-147.28351563 250.65949219 -147.31703125 249.69398438 -147.3515625 248.69921875 C-147.44193872 241.9661901 -146.69035643 235.79646894 -143 230 C-140.86035156 228.72509766 -140.86035156 228.72509766 -139 228 C-139 227.34 -139 226.68 -139 226 C-143.91404805 226.02692629 -148.33666872 226.38798425 -153 228 C-155.21602579 230.78890621 -156.28483981 233.428702 -157.5703125 236.7421875 C-160.31307245 242.99208313 -165.3468147 248.2312098 -171 252 C-170.71253906 251.31035156 -170.42507812 250.62070312 -170.12890625 249.91015625 C-168.91710877 246.78631844 -167.91419824 243.64240714 -166.9375 240.4375 C-166.59589844 239.32246094 -166.25429687 238.20742188 -165.90234375 237.05859375 C-165.60457031 236.04925781 -165.30679688 235.03992188 -165 234 C-164.81912842 233.38817871 -164.63825684 232.77635742 -164.4519043 232.14599609 C-163.91317579 229.58769055 -163.87032502 227.2201414 -163.8671875 224.60546875 C-163.86589844 223.56712891 -163.86460937 222.52878906 -163.86328125 221.45898438 C-163.86714844 220.37939453 -163.87101562 219.29980469 -163.875 218.1875 C-163.87113281 217.11951172 -163.86726563 216.05152344 -163.86328125 214.95117188 C-163.87438913 205.97044978 -164.06824327 199.51577452 -169.5 192.0625 C-177.18385443 181.02335326 -183.51448384 169.33490171 -189.35009766 157.22680664 C-190.97271279 153.89019165 -192.63767945 150.86956729 -195 148 C-195.96317702 151.32501003 -196.91715553 154.65228055 -197.85546875 157.984375 C-198.55542549 160.46598582 -199.28725631 162.92690884 -200.05078125 165.390625 C-203.59034319 177.36227079 -204.75554838 189.61450116 -206 202 C-206.09788818 202.94713867 -206.19577637 203.89427734 -206.29663086 204.87011719 C-208.70996627 229.43834526 -205.16388519 251.79737894 -197 275 C-210.31858079 268.20480572 -217.6379458 256.0481829 -222.3125 242.1875 C-224.97889485 233.93218609 -226.67024125 225.56178004 -228 217 C-232.53813831 230.61441493 -229.21951811 249.24039285 -226 263 C-239.36711767 251.83306008 -243.14055178 225.88003301 -244.76855469 209.7265625 C-247.63283838 175.98360862 -241.62432018 134.25312417 -219.10546875 107.44921875 C-213.33054542 100.88599924 -207.06392954 95.16466546 -200 90 C-199.13890625 89.36964844 -198.2778125 88.73929687 -197.390625 88.08984375 C-195.55956662 86.75888657 -193.7234534 85.43486079 -191.8828125 84.1171875 C-188.87348576 81.90708575 -185.97713994 79.58320282 -183.0625 77.25 C-168.45624495 65.86743865 -152.21648241 57.65067708 -135 51 C-134.14486816 50.66693848 -133.28973633 50.33387695 -132.40869141 49.99072266 C-125.22655964 47.27898158 -117.93574098 45.26530086 -110.5 43.375 C-109.35402344 43.0759375 -108.20804688 42.776875 -107.02734375 42.46875 C-94.87629176 39.34458874 -83.76910493 37.63372247 -71.1875 37.6875 C-70.1699614 37.69023422 -70.1699614 37.69023422 -69.13186646 37.69302368 C-48.71160253 37.78487882 -24.86319938 39.48999113 -6 48 C-6.33 46.824375 -6.66 45.64875 -7 44.4375 C-10.05785453 30.23398729 -8.09850299 13.77730538 -1 1 C-0.67 0.67 -0.34 0.34 0 0 Z " fill="#5E5F58" transform="translate(350,98)"/>
<path d="M0 0 C1.98 0.495 1.98 0.495 4 1 C4.13462646 1.86612915 4.13462646 1.86612915 4.27197266 2.74975586 C7.91880705 29.7260197 7.91880705 29.7260197 22 52 C24.51906476 52.47276678 24.51906476 52.47276678 27.3894043 52.43237305 C28.49031906 52.45216721 29.59123383 52.47196136 30.72550964 52.49235535 C31.91308365 52.49874527 33.10065765 52.50513519 34.32421875 52.51171875 C35.54075638 52.52966995 36.75729401 52.54762115 38.01069641 52.56611633 C41.90292883 52.62037397 45.79503754 52.6541655 49.6875 52.6875 C52.32358498 52.72065932 54.95965361 52.75514766 57.59570312 52.79101562 C64.06369116 52.87610946 70.53169491 52.94439387 77 53 C77.33 54.32 77.66 55.64 78 57 C67.87167101 65.74975087 55.65741432 72.64901383 43 77 C45.69887794 80.45793737 48.346636 83.35466171 51.75 86.125 C72.31436585 103.7515993 87.69070856 137.71712463 93 164 C93.19207031 164.92039062 93.38414062 165.84078125 93.58203125 166.7890625 C98.36225207 191.20601777 96.98843777 216.21883264 90 240 C89.51853516 241.68802734 89.51853516 241.68802734 89.02734375 243.41015625 C86.44179786 252.19263804 83.35592825 260.7726933 78.9375 268.8125 C73.44892141 279.43267645 71.82245576 292.13992779 71.8125 303.9375 C71.80025391 304.69740234 71.78800781 305.45730469 71.77539062 306.24023438 C71.75431952 314.46498984 73.54407388 321.99998093 78 329 C78.928125 329.9075 79.85625 330.815 80.8125 331.75 C81.534375 332.4925 82.25625 333.235 83 334 C82.63671875 336.140625 82.63671875 336.140625 82 338 C69.02266804 338.66455754 60.7832205 336.6348515 51 328 C48.5 325.125 48.5 325.125 47 323 C46.58252308 334.99086497 47.49922124 348.16119397 55.3125 357.875 C57 360 57 360 56.75 362.3125 C56.37875 363.1478125 56.37875 363.1478125 56 364 C41.58973367 361.8769405 25.96045768 349.09219878 17.31640625 337.80078125 C16.88199219 337.20652344 16.44757813 336.61226563 16 336 C15.70867187 336.82242187 15.41734375 337.64484375 15.1171875 338.4921875 C10.5154447 351.02397763 4.90448894 362.17890704 -6.6875 369.5625 C-10.15140387 371.06570356 -11.50523539 371.27082349 -15 370 C-14.57134049 366.57072389 -13.79727077 364.67440457 -11.9375 361.6875 C-8.58628527 355.43270571 -9.69971349 347.87322466 -10 341 C-10.66 341 -11.32 341 -12 341 C-12.24363281 341.7321875 -12.48726562 342.464375 -12.73828125 343.21875 C-14.5300053 347.16830889 -17.37204455 349.68882891 -20.41796875 352.71875 C-22.26559524 354.88715869 -22.26559524 354.88715869 -21.87109375 357.546875 C-21.06017509 359.8305383 -20.1344958 361.68900686 -18.875 363.75 C-16.72578895 367.81047374 -17.00174214 370.53295215 -17.76953125 374.96484375 C-18.08287552 377.73183299 -17.17130051 379.51959891 -16 382 C-15.375 384.5 -15.375 384.5 -16 387 C-24.18101712 394.49736667 -37.35053916 396.79823141 -47.75 399.4375 C-48.92014648 399.7368042 -50.09029297 400.0361084 -51.29589844 400.34448242 C-85.90809772 409.10051688 -85.90809772 409.10051688 -100 410 C-101 409 -101 409 -101.125 406.0625 C-101 403 -101 403 -100 401 C-100.6798999 401.12117188 -101.3597998 401.24234375 -102.06030273 401.3671875 C-105.18469406 401.91937834 -108.31102167 402.45975623 -111.4375 403 C-113.04141602 403.28617187 -113.04141602 403.28617187 -114.67773438 403.578125 C-120.88662998 404.64142211 -126.70161952 405.21193289 -133 405 C-133.38750818 399.92440268 -132.36951562 397.11537925 -129.8125 392.75 C-129.46880371 392.15646729 -129.12510742 391.56293457 -128.77099609 390.95141602 C-126.59885344 387.31169786 -124.22114501 383.90803068 -121.64453125 380.54296875 C-113.25433368 369.66604989 -113.25433368 369.66604989 -110.3359375 356.5078125 C-110 354 -110 354 -107.6875 351.5 C-102.1531965 349.2487579 -96.61846908 347.03398584 -91 345 C-91.55872803 345.11593506 -92.11745605 345.23187012 -92.69311523 345.35131836 C-95.27372403 345.88427307 -97.85558459 346.41091316 -100.4375 346.9375 C-101.31599609 347.11990234 -102.19449219 347.30230469 -103.09960938 347.49023438 C-130.56503354 353.06439795 -159.25408231 351.51257716 -183.31298828 336.15039062 C-194.40979323 328.58336531 -204.30952197 317.46869609 -207 304 C-207.41908458 298.33397642 -207.23931531 292.67044328 -207 287 C-203.535 285.515 -203.535 285.515 -200 284 C-202.38264766 281.54927669 -204.70574936 279.22459711 -207.42578125 277.1484375 C-217.01214735 269.14767672 -222.51488046 256.73040234 -226 245 C-226.43173987 252.08373192 -225.43256529 258.18161734 -223.55859375 265.01953125 C-222.985361 268.07810882 -223.17082676 270.02925349 -224 273 C-225.75390625 272.859375 -225.75390625 272.859375 -228 272 C-234.10504124 264.28070333 -237.86315183 255.25248626 -241 246 C-241.34160156 245.00484375 -241.68320313 244.0096875 -242.03515625 242.984375 C-242.97779724 240.06867573 -243.80347847 237.15602921 -244.5625 234.1875 C-244.81128906 233.23230469 -245.06007813 232.27710938 -245.31640625 231.29296875 C-247.1974812 222.23156201 -247.2420142 213.15920023 -247.25 203.9375 C-247.25067474 203.23468903 -247.25134949 202.53187805 -247.25204468 201.80776978 C-247.19804821 166.15344909 -240.18411169 130.48390624 -214.28125 104.24609375 C-208.35460573 98.55413865 -202.08377794 93.74687076 -195.203125 89.265625 C-192.66414786 87.46976312 -190.44628793 85.67076971 -188.140625 83.60546875 C-151.28271152 50.80876754 -98.05482985 38.4960424 -50 41 C-36.24789109 42.20310066 -22.97447956 45.34445145 -10 50 C-10.02618408 49.23034912 -10.05236816 48.46069824 -10.0793457 47.66772461 C-11.10298976 13.00635943 -11.10298976 13.00635943 0 0 Z M0 6 C-3.05076492 9.42557319 -4.06006003 13.07976564 -5.125 17.4375 C-5.29386719 18.09298828 -5.46273437 18.74847656 -5.63671875 19.42382812 C-6.10911267 21.27806724 -6.55526703 23.13893275 -7 25 C-7.29970703 26.24716797 -7.29970703 26.24716797 -7.60546875 27.51953125 C-9.00966676 36.34790486 -8.40588203 45.42904528 -6 54 C-6.5993335 53.8131665 -7.19866699 53.62633301 -7.81616211 53.43383789 C-39.3353522 43.77104275 -73.7608438 39.29064313 -106 48 C-107.01884277 48.26264648 -108.03768555 48.52529297 -109.08740234 48.79589844 C-112.41808699 49.65654301 -115.74144548 50.54043916 -119.0625 51.4375 C-120.08585449 51.71343994 -121.10920898 51.98937988 -122.16357422 52.27368164 C-128.16531244 53.97093057 -133.7141624 56.09094576 -139.34594727 58.76782227 C-141.88503498 59.94662603 -144.43981075 60.97167025 -147.0546875 61.96875 C-152.33459448 64.05155354 -157.21065204 66.6717615 -162.125 69.5 C-163.0337085 70.02118408 -163.94241699 70.54236816 -164.87866211 71.0793457 C-172.78940432 75.70858456 -180.05725576 80.95265927 -187.24365234 86.62451172 C-189.91663576 88.71786571 -192.64687647 90.72903937 -195.375 92.75 C-216.59680233 108.70234531 -231.13690845 125.76903146 -238 152 C-238.23050049 152.86351074 -238.46100098 153.72702148 -238.69848633 154.61669922 C-248.43256362 192.04884632 -248.75823292 231.81577694 -229 266 C-227.41016543 267.87353701 -227.41016543 267.87353701 -226 269 C-226.2165625 268.07445312 -226.433125 267.14890625 -226.65625 266.1953125 C-229.42141257 253.27261095 -232.23765129 235.71295387 -228 223 C-227.78085938 224.258125 -227.56171875 225.51625 -227.3359375 226.8125 C-223.5499703 247.6312311 -217.76427765 266.71623287 -200 280 C-199.01 280.33 -198.02 280.66 -197 281 C-197.391875 279.88625 -197.78375 278.7725 -198.1875 277.625 C-211.73183091 236.60502639 -208.03362562 194.78807758 -195 154 C-192.19418837 157.41502455 -190.34336105 161.16882861 -188.4375 165.125 C-182.08009426 178.03544694 -175.45307606 190.63365937 -166.71484375 202.10546875 C-160.78971938 212.10664679 -162.62740751 231.76549017 -165.28637695 242.79296875 C-166.38835813 246.7611237 -167.53868652 250.24811205 -169.69921875 253.76953125 C-170.12847656 254.50558594 -170.55773437 255.24164063 -171 256 C-170.67 256.66 -170.34 257.32 -170 258 C-162.49116881 251.25737607 -156.23624197 243.7087259 -153 234 C-148.38 233.34 -143.76 232.68 -139 232 C-139 232.66 -139 233.32 -139 234 C-139.92087402 234.35892334 -139.92087402 234.35892334 -140.86035156 234.72509766 C-144.90762855 237.13665407 -145.83905976 241.63244238 -147 246 C-147.42573758 249.89906871 -147.38592762 253.70923908 -147.25 257.625 C-147.23195313 258.62917969 -147.21390625 259.63335937 -147.1953125 260.66796875 C-147.14873997 263.11302652 -147.08337028 265.55596812 -147 268 C-145.87722656 267.98839844 -144.75445312 267.97679687 -143.59765625 267.96484375 C-135.98693084 267.91048749 -128.5499693 267.90182265 -121 269 C-121.37033226 256.31612002 -123.69418451 246.4497115 -131 236 C-119.94320748 243.68251252 -112.30790552 252.84501526 -105 264 C-104.01 265.485 -104.01 265.485 -103 267 C-99.31353859 265.54144353 -97.83856029 263.69770955 -95.75 260.375 C-95.22921875 259.55773437 -94.7084375 258.74046875 -94.171875 257.8984375 C-93.78515625 257.27195312 -93.3984375 256.64546875 -93 256 C-99.87950654 241.19084417 -114.28795516 231.20387433 -129 225 C-132.79019828 223.68373867 -136.65822933 223.85220247 -140.625 223.875 C-141.305625 223.87113281 -141.98625 223.86726562 -142.6875 223.86328125 C-146.46957632 223.81594889 -146.46957632 223.81594889 -150 225 C-149.79503906 224.31035156 -149.59007812 223.62070312 -149.37890625 222.91015625 C-147.18747514 215.26636067 -145.94373306 208.17616621 -145.98046875 200.2265625 C-145.98469849 199.03281006 -145.98469849 199.03281006 -145.98901367 197.81494141 C-145.99263916 197.21601074 -145.99626465 196.61708008 -146 196 C-145.42556152 196.14622803 -144.85112305 196.29245605 -144.25927734 196.44311523 C-141.63181894 197.11043567 -139.00342474 197.7739964 -136.375 198.4375 C-135.47136719 198.66759766 -134.56773437 198.89769531 -133.63671875 199.13476562 C-129.10754052 200.27532511 -124.6286331 201.33107794 -120 202 C-120 201.34 -120 200.68 -120 200 C-122.08219049 199.18457569 -124.16579761 198.37276811 -126.25 197.5625 C-127.99023438 196.88380859 -127.99023438 196.88380859 -129.765625 196.19140625 C-135.63657684 194.02879718 -138.15029916 194 -145 194 C-145 184.43 -145 174.86 -145 165 C-142.69 167.64 -140.38 170.28 -138 173 C-134.48907507 176.19837968 -130.73868023 179.07258894 -127 182 C-126.04480469 182.78246094 -125.08960938 183.56492187 -124.10546875 184.37109375 C-103.70918852 201.30387007 -103.70918852 201.30387007 -80 210 C-80.21942282 235.37549216 -80.72148025 259.82790043 -87.51611328 284.45996094 C-88.23490984 287.10889714 -88.23490984 287.10889714 -87 290 C-73.27971942 270.43173098 -60.40195129 247.64590228 -61 223 C-60.34 223 -59.68 223 -59 223 C-55.37287019 234.92556317 -51.92957109 246.88222866 -49 259 C-47.6696875 257.7934375 -47.6696875 257.7934375 -46.3125 256.5625 C-42.85434523 253.60440427 -39.2225373 250.92517267 -35.5 248.3125 C-34.4378125 247.56613281 -33.375625 246.81976563 -32.28125 246.05078125 C-22.1445903 239.71536894 -10.99980151 238.46313086 0.69921875 240.4609375 C8.79021117 242.86140646 14.93139908 247.72728724 19.03515625 255.078125 C23.23787875 263.44953987 23.0975597 272.20594544 20.5 281.125 C15.83972172 293.59042965 6.332115 301.04616969 -5.3125 306.75 C-17.30298787 311.8409334 -29.15289815 312.5096526 -42 313 C-42.66 321.25 -43.32 329.5 -44 338 C-45.98 336.515 -45.98 336.515 -48 335 C-54.70580047 334.33688929 -61.77046824 337.29257657 -68 339.4375 C-69.02367676 339.78659424 -70.04735352 340.13568848 -71.10205078 340.49536133 C-79.07711066 343.25595898 -86.99917198 346.15574071 -94.875 349.1875 C-96.49728516 349.79259399 -96.49728516 349.79259399 -98.15234375 350.40991211 C-99.15136719 350.8044458 -100.15039062 351.19897949 -101.1796875 351.60546875 C-102.06382324 351.94731201 -102.94795898 352.28915527 -103.85888672 352.64135742 C-106.65238402 354.41397002 -107.13833314 355.84594089 -108 359 C-108.24402661 361.17653512 -108.24402661 361.17653512 -108.27734375 363.33203125 C-108.78942961 368.68183538 -111.17984689 371.66621427 -114.5625 375.6875 C-124.39573517 387.75741847 -124.39573517 387.75741847 -130 402 C-123.4366878 402.29960912 -117.25958121 401.15168138 -110.8125 400 C-108.67369829 399.62203862 -106.534392 399.24691869 -104.39453125 398.875 C-103.45456299 398.70742188 -102.51459473 398.53984375 -101.54614258 398.3671875 C-99 398 -99 398 -95 398 C-96.04166667 399.7578125 -97.08333333 401.515625 -98.125 403.2734375 C-99.15068348 404.97472667 -99.15068348 404.97472667 -99 407 C-96.99997024 406.66684526 -94.99997629 406.33347558 -93 406 C-92.11441406 405.85296631 -91.22882813 405.70593262 -90.31640625 405.55444336 C-76.78226515 403.27115697 -63.44471107 400.53906196 -50.1875 397 C-48.98029297 396.68023193 -47.77308594 396.36046387 -46.52929688 396.03100586 C-32.17608187 392.40462601 -32.17608187 392.40462601 -19 386 C-19.50771472 380.03435204 -21.38592128 375.36190101 -24 370 C-22.68 370.33 -21.36 370.66 -20 371 C-20.70932187 366.26840586 -22.583394 363.15466755 -25.13671875 359.18359375 C-26 357 -26 357 -25.3828125 354.98828125 C-23.806141 352.72125924 -22.0798512 350.76175386 -20.1875 348.75 C-16.53391794 344.73704921 -13.72575574 340.68489268 -11 336 C-7.48179544 342.57751288 -6.11167116 348.56609023 -7 356 C-8.31060285 360.17009996 -10.04734137 364.09468273 -12 368 C-4.29053798 365.87710466 0.96086474 360.80997985 5.18408203 354.12597656 C9.50518482 346.51979218 13.02767432 338.54674463 15 330 C15.5775 330.72703125 16.155 331.4540625 16.75 332.203125 C26.45421036 344.2659976 37.81584601 354.39304879 52 361 C52.66 360.67 53.32 360.34 54 360 C53.60167969 359.46632813 53.20335937 358.93265625 52.79296875 358.3828125 C42.94850461 344.53828629 43.84036507 329.28276289 44 313 C45.15511271 314.73266907 46.29874363 316.47335556 47.41015625 318.234375 C52.09586822 325.36817762 57.18947223 330.59473611 64.875 334.4375 C69.58033293 335.28445993 74.23359412 335.15266069 79 335 C78.51789063 334.27554687 78.03578125 333.55109375 77.5390625 332.8046875 C76.59160156 331.35449219 76.59160156 331.35449219 75.625 329.875 C74.99851562 328.92367188 74.37203125 327.97234375 73.7265625 326.9921875 C69.6477398 319.92345857 69.64933123 313.55572339 69.6875 305.5625 C69.69096436 304.40049072 69.69442871 303.23848145 69.69799805 302.04125977 C69.80772309 293.34509508 70.6149256 285.39722046 73 277 C73.34224609 275.73929687 73.34224609 275.73929687 73.69140625 274.453125 C74.86625763 270.55933186 76.44308813 267.04492738 78.3125 263.4375 C92.92029778 234.74831156 99.06792212 195.26941469 90 164 C89.73654785 163.06881348 89.4730957 162.13762695 89.20166016 161.17822266 C85.33312562 147.74843204 80.77309262 135.22287092 74 123 C73.51015625 122.04738281 73.0203125 121.09476562 72.515625 120.11328125 C65.20186611 106.04045867 56.19672026 92.90716047 43.95703125 82.703125 C41.51916736 80.58155083 39.26678503 78.30202003 37 76 C38.20914062 75.5153125 39.41828125 75.030625 40.6640625 74.53125 C58.70589412 67.48871295 58.70589412 67.48871295 74 56 C73.02733437 56.00785522 73.02733437 56.00785522 72.03501892 56.01586914 C65.26961442 56.06265192 58.50590678 56.05348374 51.74047852 56.01220703 C49.21769747 56.00410926 46.694829 56.01015215 44.17211914 56.03076172 C40.5393703 56.0579626 36.90997437 56.03387112 33.27734375 56 C32.15416245 56.0194165 31.03098114 56.03883301 29.87376404 56.05883789 C22.21304398 55.91858855 22.21304398 55.91858855 18.76028442 53.30395508 C14.63143674 48.72524618 12.15476992 43.73037067 10 38 C9.67386719 37.22527344 9.34773437 36.45054687 9.01171875 35.65234375 C6.24256603 28.73480781 4.7624453 21.67324722 3.39453125 14.37353516 C3.24113281 13.57866699 3.08773437 12.78379883 2.9296875 11.96484375 C2.73221924 10.89157837 2.73221924 10.89157837 2.53076172 9.79663086 C2.08722461 7.76869168 2.08722461 7.76869168 0 6 Z " fill="#FDF5EF" transform="translate(350,92)"/>
<path d="M0 0 C1.98 0.495 1.98 0.495 4 1 C4.13462646 1.86612915 4.13462646 1.86612915 4.27197266 2.74975586 C7.91880705 29.7260197 7.91880705 29.7260197 22 52 C24.51906476 52.47276678 24.51906476 52.47276678 27.3894043 52.43237305 C28.49031906 52.45216721 29.59123383 52.47196136 30.72550964 52.49235535 C31.91308365 52.49874527 33.10065765 52.50513519 34.32421875 52.51171875 C35.54075638 52.52966995 36.75729401 52.54762115 38.01069641 52.56611633 C41.90292883 52.62037397 45.79503754 52.6541655 49.6875 52.6875 C52.32358498 52.72065932 54.95965361 52.75514766 57.59570312 52.79101562 C64.06369116 52.87610946 70.53169491 52.94439387 77 53 C77.33 54.32 77.66 55.64 78 57 C67.87167101 65.74975087 55.65741432 72.64901383 43 77 C45.69887794 80.45793737 48.346636 83.35466171 51.75 86.125 C72.31436585 103.7515993 87.69070856 137.71712463 93 164 C93.19207031 164.92039062 93.38414062 165.84078125 93.58203125 166.7890625 C98.36225207 191.20601777 96.98843777 216.21883264 90 240 C89.51853516 241.68802734 89.51853516 241.68802734 89.02734375 243.41015625 C86.44179786 252.19263804 83.35592825 260.7726933 78.9375 268.8125 C73.44892141 279.43267645 71.82245576 292.13992779 71.8125 303.9375 C71.80025391 304.69740234 71.78800781 305.45730469 71.77539062 306.24023438 C71.75431952 314.46498984 73.54407388 321.99998093 78 329 C78.928125 329.9075 79.85625 330.815 80.8125 331.75 C81.534375 332.4925 82.25625 333.235 83 334 C82.63671875 336.140625 82.63671875 336.140625 82 338 C69.02266804 338.66455754 60.7832205 336.6348515 51 328 C48.5 325.125 48.5 325.125 47 323 C46.58252308 334.99086497 47.49922124 348.16119397 55.3125 357.875 C57 360 57 360 56.75 362.3125 C56.37875 363.1478125 56.37875 363.1478125 56 364 C41.58973367 361.8769405 25.96045768 349.09219878 17.31640625 337.80078125 C16.88199219 337.20652344 16.44757813 336.61226563 16 336 C15.70867187 336.82242187 15.41734375 337.64484375 15.1171875 338.4921875 C10.5154447 351.02397763 4.90448894 362.17890704 -6.6875 369.5625 C-10.15140387 371.06570356 -11.50523539 371.27082349 -15 370 C-14.57134049 366.57072389 -13.79727077 364.67440457 -11.9375 361.6875 C-8.58628527 355.43270571 -9.69971349 347.87322466 -10 341 C-10.66 341 -11.32 341 -12 341 C-12.24363281 341.7321875 -12.48726562 342.464375 -12.73828125 343.21875 C-14.5300053 347.16830889 -17.37204455 349.68882891 -20.41796875 352.71875 C-22.26559524 354.88715869 -22.26559524 354.88715869 -21.87109375 357.546875 C-21.06017509 359.8305383 -20.1344958 361.68900686 -18.875 363.75 C-16.72578895 367.81047374 -17.00174214 370.53295215 -17.76953125 374.96484375 C-18.08287552 377.73183299 -17.17130051 379.51959891 -16 382 C-15.375 384.5 -15.375 384.5 -16 387 C-24.18101712 394.49736667 -37.35053916 396.79823141 -47.75 399.4375 C-48.92014648 399.7368042 -50.09029297 400.0361084 -51.29589844 400.34448242 C-85.90809772 409.10051688 -85.90809772 409.10051688 -100 410 C-101 409 -101 409 -101.125 406.0625 C-101 403 -101 403 -100 401 C-100.6798999 401.12117188 -101.3597998 401.24234375 -102.06030273 401.3671875 C-105.18469406 401.91937834 -108.31102167 402.45975623 -111.4375 403 C-113.04141602 403.28617187 -113.04141602 403.28617187 -114.67773438 403.578125 C-120.88662998 404.64142211 -126.70161952 405.21193289 -133 405 C-133.38750818 399.92440268 -132.36951562 397.11537925 -129.8125 392.75 C-129.46880371 392.15646729 -129.12510742 391.56293457 -128.77099609 390.95141602 C-126.59885344 387.31169786 -124.22114501 383.90803068 -121.64453125 380.54296875 C-113.24615654 369.67402013 -113.24615654 369.67402013 -110.34765625 356.515625 C-110 354 -110 354 -107.5 351.375 C-103.06556427 349.63290025 -98.60910007 348.20237393 -94 347 C-94 347.99 -94 348.98 -94 350 C-94.84304687 350.21011719 -95.68609375 350.42023438 -96.5546875 350.63671875 C-100.10606476 351.7606252 -102.93316523 352.87146029 -106 355 C-106.94851404 357.70255374 -106.94851404 357.70255374 -107 360.8125 C-107.46285846 368.40680739 -110.65710551 372.24834745 -115.25146484 377.95922852 C-121.24415227 385.41989908 -125.74038351 393.43479167 -130 402 C-129.08710205 401.84853516 -128.1742041 401.69707031 -127.23364258 401.54101562 C-123.83294933 400.97873884 -120.43170541 400.42005654 -117.0300293 399.86376953 C-115.56039298 399.6226864 -114.09098771 399.3801902 -112.62182617 399.13623047 C-110.5049929 398.78497808 -108.38736937 398.43888544 -106.26953125 398.09375 C-104.99698486 397.88427734 -103.72443848 397.67480469 -102.41333008 397.45898438 C-99 397 -99 397 -94 397 C-95.65 400.3 -97.3 403.6 -99 407 C-98.2575 406.71382813 -97.515 406.42765625 -96.75 406.1328125 C-92.65062299 404.89445903 -88.61168277 404.17075804 -84.39526367 403.453125 C-72.84018207 401.48559547 -61.50317826 399.02669581 -50.1875 396 C-48.98029297 395.68015137 -47.77308594 395.36030273 -46.52929688 395.03076172 C-32.95964118 391.36887426 -32.95964118 391.36887426 -20 386 C-20.60108576 380.34979382 -22.07528683 375.33835539 -24 370 C-22.68 370.33 -21.36 370.66 -20 371 C-20.52851563 370.03578125 -21.05703125 369.0715625 -21.6015625 368.078125 C-22.27687937 366.80252647 -22.9513128 365.52645996 -23.625 364.25 C-23.975625 363.61578125 -24.32625 362.9815625 -24.6875 362.328125 C-27.15128083 357.59766581 -27.15128083 357.59766581 -26.4453125 354.80859375 C-24.78315453 352.72865013 -23.07414843 350.75330908 -21.25 348.8125 C-17.32014716 344.49539888 -14.08663175 339.94562587 -11 335 C-6.60227083 340.4580036 -5.54395408 346.73106855 -5.6640625 353.61328125 C-6.28542869 358.02787128 -8.12334368 361.98697153 -10 366 C-4.05723366 365.04969277 -0.60338721 360.4968379 3 356 C9.42191204 346.13807542 12.68817455 335.43745223 15 324 C15.33 324 15.66 324 16 324 C16.185625 325.134375 16.37125 326.26875 16.5625 327.4375 C19.84051016 340.344665 33.18176634 348.79439659 43.88671875 355.23828125 C46.87987284 356.9320234 49.90883122 358.49380831 53 360 C52.60167969 359.46632813 52.20335937 358.93265625 51.79296875 358.3828125 C43.6352526 346.9104039 42.95655267 335.16750182 42.8125 321.5 C42.79936768 320.69755859 42.78623535 319.89511719 42.77270508 319.06835938 C42.76989609 317.04415645 42.87685241 315.02045541 43 313 C43.66 312.34 44.32 311.68 45 311 C45.29132813 311.64066406 45.58265625 312.28132813 45.8828125 312.94140625 C50.48335269 322.64883538 55.12973143 328.4502762 65 333 C68.01490557 334.00496852 70.04181692 334.10335303 73.1875 334.0625 C74.53908203 334.04896484 74.53908203 334.04896484 75.91796875 334.03515625 C76.60503906 334.02355469 77.29210937 334.01195312 78 334 C77.40251953 333.27296875 77.40251953 333.27296875 76.79296875 332.53125 C76.26316406 331.8609375 75.73335938 331.190625 75.1875 330.5 C74.66542969 329.8503125 74.14335937 329.200625 73.60546875 328.53125 C68.8140612 320.97691401 68.51683193 314.18140156 68.625 305.4375 C68.63297607 304.28451416 68.64095215 303.13152832 68.64916992 301.94360352 C68.79308802 293.3006231 69.62981518 285.34479817 72 277 C72.34224609 275.73929687 72.34224609 275.73929687 72.69140625 274.453125 C73.86625763 270.55933186 75.44308813 267.04492738 77.3125 263.4375 C91.92029778 234.74831156 98.06792212 195.26941469 89 164 C88.73654785 163.06881348 88.4730957 162.13762695 88.20166016 161.17822266 C84.33312562 147.74843204 79.77309262 135.22287092 73 123 C72.51015625 122.04738281 72.0203125 121.09476562 71.515625 120.11328125 C63.93548824 105.52790574 54.66322278 92.53989451 42 82 C41.39285156 81.48953125 40.78570312 80.9790625 40.16015625 80.453125 C38.7786116 79.29587819 37.39016057 78.14688247 36 77 C38.65834694 73.71785323 41.78434112 72.79357634 45.6875 71.375 C55.35613727 67.71879263 64.40230524 62.73179651 73 57 C72.36630493 57.00745743 71.73260986 57.01491486 71.07971191 57.02259827 C64.46010236 57.09162355 57.84254059 57.09741253 51.22265625 57.06713867 C48.75517589 57.06406403 46.28762077 57.07689861 43.8203125 57.10620117 C40.26423138 57.14563352 36.71234799 57.12709612 33.15625 57.09765625 C32.06010376 57.12223404 30.96395752 57.14681183 29.83459473 57.1721344 C25.27351543 57.08735031 22.21026258 56.94869038 18.54663086 54.07687378 C14.08934677 49.19507747 11.26271563 44.17104264 9 38 C8.67515625 37.2265625 8.3503125 36.453125 8.015625 35.65625 C4.44613645 26.75998622 2.82599398 17.37278825 1 8 C0.34 8 -0.32 8 -1 8 C-6.51966292 23.59438746 -8.3207568 37.46460779 -6 54 C-9.61880983 53.29533226 -13.20731437 52.50067978 -16.796875 51.66015625 C-46.21444419 44.85675834 -76.40452529 41.00482949 -106 49 C-107.01884277 49.26264648 -108.03768555 49.52529297 -109.08740234 49.79589844 C-112.41808699 50.65654301 -115.74144548 51.54043916 -119.0625 52.4375 C-120.08585449 52.71343994 -121.10920898 52.98937988 -122.16357422 53.27368164 C-128.16531244 54.97093057 -133.7141624 57.09094576 -139.34594727 59.76782227 C-141.88503498 60.94662603 -144.43981075 61.97167025 -147.0546875 62.96875 C-152.33459448 65.05155354 -157.21065204 67.6717615 -162.125 70.5 C-163.0337085 71.02118408 -163.94241699 71.54236816 -164.87866211 72.0793457 C-172.78940432 76.70858456 -180.05725576 81.95265927 -187.24365234 87.62451172 C-189.91663576 89.71786571 -192.64687647 91.72903937 -195.375 93.75 C-197.25135423 95.16487252 -199.12643135 96.58144088 -201 98 C-201.86109375 98.64195312 -202.7221875 99.28390625 -203.609375 99.9453125 C-228.4845972 119.02661649 -238.02440347 146.92147359 -242 177 C-243.98651883 175.38595345 -244.93120598 174.55895142 -245.25 171.96875 C-242.3020357 142.85760259 -228.96745001 116.29754677 -206.62939453 97.31396484 C-202.99286982 94.38142424 -199.11483164 91.81324933 -195.203125 89.265625 C-192.66414786 87.46976312 -190.44628793 85.67076971 -188.140625 83.60546875 C-151.28271152 50.80876754 -98.05482985 38.4960424 -50 41 C-36.24789109 42.20310066 -22.97447956 45.34445145 -10 50 C-10.02618408 49.23034912 -10.05236816 48.46069824 -10.0793457 47.66772461 C-11.10298976 13.00635943 -11.10298976 13.00635943 0 0 Z " fill="#EDEDED" transform="translate(350,92)"/>
<path d="M0 0 C2.4375 1.5625 2.4375 1.5625 4 4 C2.9169171 16.18468262 -0.20842084 26.69543996 -9.47265625 34.92578125 C-10.30667969 35.61027344 -11.14070313 36.29476562 -12 37 C-13.25250128 38.0804405 -14.50265898 39.1636062 -15.75 40.25 C-16.70132813 41.06210937 -16.70132813 41.06210937 -17.671875 41.890625 C-20.89748133 44.81315422 -23.93873925 47.90693499 -27 51 C-31.83445844 55.87978946 -36.70657299 60.61331743 -42 65 C-42.598125 65.50273437 -43.19625 66.00546875 -43.8125 66.5234375 C-45.20302989 67.68865005 -46.60058054 68.84547895 -48 70 C-47.67 70.66 -47.34 71.32 -47 72 C-48.32 72 -49.64 72 -51 72 C-49.94124926 68.59687262 -48.99097846 65.98646769 -47 63 C-58.31195332 64.3468018 -58.31195332 64.3468018 -69.5625 66.125 C-73.79857596 66.86472404 -77.70745301 67.19511577 -82 67 C-78.70026559 56.22827084 -72.0554013 47.42993226 -65.13671875 38.71484375 C-60.90870149 33.3428657 -60.65219412 29.93522203 -60.34375 23.2265625 C-58.53000138 18.87145681 -56.41949092 18.1220866 -52.20507812 16.26416016 C-46.39876332 13.97400948 -40.57307611 11.76258219 -34.69580078 9.66064453 C-32.50171448 8.87561343 -30.31121847 8.08116445 -28.12109375 7.28515625 C-5.46701255 -0.91116876 -5.46701255 -0.91116876 0 0 Z " fill="#504174" transform="translate(302,427)"/>
<path d="M0 0 C0.99 0.495 0.99 0.495 2 1 C1.505 1.45375 1.01 1.9075 0.5 2.375 C-1.22609337 3.87635519 -1.22609337 3.87635519 -1 6 C0.216875 6.45375 1.43375 6.9075 2.6875 7.375 C8.14029197 10.09172791 10.03706319 14.42696636 12 20 C12.56845002 22.39682286 12.83905648 24.53219938 13 27 C4.34049527 32.04880412 -4.82796902 34.47448292 -14.4375 37 C-15.65081497 37.32383163 -15.65081497 37.32383163 -16.88864136 37.65420532 C-27.71211676 40.53677513 -38.5505749 43.12911062 -49.5625 45.1875 C-50.67230225 45.39568359 -51.78210449 45.60386719 -52.92553711 45.81835938 C-61.1077762 47.24598456 -61.1077762 47.24598456 -65 46 C-64.42894531 45.48953125 -63.85789063 44.9790625 -63.26953125 44.453125 C-53.36122165 35.56872657 -43.54687136 26.63645873 -34.18823242 17.17114258 C-29.43314677 12.3825198 -24.62436464 7.74957643 -19 4 C-20.2297893 8.06776462 -21.761038 11.39925838 -24 15 C-15.30572894 10.93113061 -6.88874181 6.88874181 0 0 Z " fill="#38114D" transform="translate(318,451)"/>
<path d="M0 0 C14.76495785 3.35489815 29.9312487 14.75986637 38 27.5 C38.67816566 28.66002021 39.34956206 29.82420834 40 31 C37.6163187 35.34170523 35.21880117 39.2064129 32 43 C28.21279043 41.73759681 27.94790056 40.59145623 26 37.1875 C19.98267776 27.40458075 11.88837578 19.23294763 3 12 C3.98118904 13.975519 4.97031942 15.94376921 6 17.89453125 C10.63127234 26.77716688 11.47686207 35.07414604 12 45 C10.865625 44.835 9.73125 44.67 8.5625 44.5 C1.07861282 43.64572992 -6.48015007 43.92229776 -14 44 C-14.11795981 40.54196269 -14.18782752 37.08445443 -14.25 33.625 C-14.28351563 32.65949219 -14.31703125 31.69398438 -14.3515625 30.69921875 C-14.44193872 23.9661901 -13.69035643 17.79646894 -10 12 C-7.86035156 10.72509766 -7.86035156 10.72509766 -6 10 C-6 9.34 -6 8.68 -6 8 C-10.29 8 -14.58 8 -19 8 C-18.67 6.02 -18.34 4.04 -18 2 C-12.78108492 -1.47927672 -6.0858442 -0.69256336 0 0 Z " fill="#412A19" transform="translate(217,316)"/>
<path d="M0 0 C0.66 0.99 1.32 1.98 2 3 C0.96230469 2.84660156 -0.07539063 2.69320313 -1.14453125 2.53515625 C-4.84453857 2.61393911 -4.84453857 2.61393911 -6.50927734 4.31982422 C-8.02206425 6.29808402 -9.36396996 8.32780272 -10.6875 10.4375 C-11.72362459 11.99110805 -12.76009339 13.54448658 -13.796875 15.09765625 C-14.58481445 16.30639404 -14.58481445 16.30639404 -15.38867188 17.53955078 C-18.00354112 21.53237688 -20.71329686 25.45632217 -23.4375 29.375 C-23.92114014 30.09357178 -24.40478027 30.81214355 -24.90307617 31.55249023 C-29.8002538 38.63753322 -35.31119269 40.62986033 -43.3125 43.1875 C-44.14845703 43.46013672 -44.98441406 43.73277344 -45.84570312 44.01367188 C-47.89535489 44.68127274 -49.9474413 45.34139082 -52 46 C-52.47622136 44.58495845 -52.95124627 43.16951422 -53.42578125 41.75390625 C-53.69044189 40.9657251 -53.95510254 40.17754395 -54.2277832 39.36547852 C-55.23989405 36.26514908 -56.13063555 33.14308686 -57 30 C-57.99 30.66 -58.98 31.32 -60 32 C-60.31481028 22.7130967 -60.31481028 22.7130967 -58 19 C-55.23525728 17.33162077 -52.27863087 16.28446861 -49.25 15.1875 C-48.36908691 14.85274658 -47.48817383 14.51799316 -46.58056641 14.1730957 C-43.7272903 13.09577694 -40.86457247 12.04687277 -38 11 C-36.04403278 10.27147214 -34.08830299 9.54230651 -32.1328125 8.8125 C-5.92168252 -0.88825238 -5.92168252 -0.88825238 0 0 Z " fill="#8C8C8C" transform="translate(302,427)"/>
<path d="M0 0 C0.99 0.33 1.98 0.66 3 1 C2.54625 1.969375 2.0925 2.93875 1.625 3.9375 C-3.37718751 15.86214606 -2.56970232 28.38457883 -1 41 C-15.11216486 47.13972945 -29.25825254 53.20415372 -43.5145874 59.00256348 C-44.83540175 59.54138134 -46.15463402 60.08409421 -47.472229 60.6307373 C-49.32072373 61.39632225 -51.17586727 62.14579366 -53.03125 62.89453125 C-54.61776367 63.54192261 -54.61776367 63.54192261 -56.23632812 64.20239258 C-60.33668075 65.38577173 -60.33668075 65.38577173 -63 64 C-64.75 61.4375 -64.75 61.4375 -66 59 C-42.08127307 43.66154878 -42.08127307 43.66154878 -33.00268555 37.94042969 C-31.42579872 36.94368307 -29.8529742 35.9404787 -28.28442383 34.93066406 C-25.13298067 32.91016433 -22.08045146 31.03879591 -18.703125 29.41015625 C-9.22829576 24.68582841 -6.49124001 15.58775277 -2.87866211 6.17895508 C-2.02207025 4.05473103 -1.05234162 2.03329395 0 0 Z " fill="#F3F0E2" transform="translate(298,350)"/>
<path d="M0 0 C2.55309863 2.55309863 2.75940885 4.50171812 3.5625 8 C4.46076773 12.11547915 4.46076773 12.11547915 6 16 C7.78857422 15.33291016 7.78857422 15.33291016 9.61328125 14.65234375 C11.17951168 14.0802476 12.7459277 13.50865934 14.3125 12.9375 C15.09818359 12.64294922 15.88386719 12.34839844 16.69335938 12.04492188 C17.45068359 11.77099609 18.20800781 11.49707031 18.98828125 11.21484375 C19.68477783 10.95823975 20.38127441 10.70163574 21.09887695 10.43725586 C23 10 23 10 26 11 C16.83112533 30.40480612 16.83112533 30.40480612 7.55615234 34.53271484 C-3.07152107 37.47404447 -14.02200298 38.07103818 -25 38 C-20.54804395 23.46693195 -9.91894459 11.22406888 0 0 Z " fill="#6E6E6F" transform="translate(245,456)"/>
<path d="M0 0 C1.81115956 1.81115956 1.38199448 4.61278227 1.5625 7.0625 C1.68818359 8.71958984 1.68818359 8.71958984 1.81640625 10.41015625 C1.87699219 11.26480469 1.93757813 12.11945313 2 13 C2.556875 12.175 3.11375 11.35 3.6875 10.5 C6 8 6 8 8.75 7.6875 C9.86375 7.8421875 9.86375 7.8421875 11 8 C14.01164289 14.02328578 11.7685392 21.93536874 10.046875 28.06640625 C9 30 9 30 6.890625 30.77734375 C6.26671875 30.85082031 5.6428125 30.92429688 5 31 C2.87961365 28.38485683 0.86908256 25.80362384 -1 23 C-1.73605469 23.86625 -2.47210938 24.7325 -3.23046875 25.625 C-4.21540858 26.75064552 -5.20112668 27.87561039 -6.1875 29 C-6.67025391 29.57234375 -7.15300781 30.1446875 -7.65039062 30.734375 C-11.35915535 34.91606946 -11.35915535 34.91606946 -14.86328125 35.375 C-15.92095703 35.189375 -15.92095703 35.189375 -17 35 C-19.75292856 29.49414289 -18.64752279 21.39192687 -17.09375 15.65234375 C-14.02077799 7.86157177 -9.68404959 -2.48308964 0 0 Z " fill="#F9F6F1" transform="translate(155,205)"/>
<path d="M0 0 C1.02222656 -0.03738281 2.04445313 -0.07476562 3.09765625 -0.11328125 C6.66094143 0.42096646 7.77325511 1.48583437 9.9375 4.3125 C10.70608629 7.94581701 10.6104385 10.16226965 8.71484375 13.40234375 C3.85302646 19.57443804 -1.90832567 22.64322662 -9.6796875 23.65234375 C-15.21308831 23.86257934 -19.18838017 22.90511693 -24.0625 20.3125 C-25.0625 19.3125 -25.0625 19.3125 -25.4375 16.125 C-24.98320167 11.50630033 -23.52370275 9.21415496 -20.0625 6.3125 C-13.49166111 1.90421568 -7.91416266 0.19009999 0 0 Z " fill="#FFDDD4" transform="translate(340.0625,372.6875)"/>
<path d="M0 0 C0.44660589 9.47796935 -0.72827664 17.32069161 -4.25 26.125 C-6 28 -6 28 -9.25 29.3125 C-13.42505022 28.96457915 -13.94556515 28.60043724 -16.6875 25.6875 C-22.44824338 18.28636557 -26 8.3853958 -26 -1 C-17.60484933 -3.54090517 -8.30222861 -2.25145183 0 0 Z " fill="#EF9C49" transform="translate(229,361)"/>
<path d="M0 0 C0.33 0 0.66 0 1 0 C1.07082963 4.46226677 1.05266299 8.74551638 0.51171875 13.17578125 C-2.77093576 41.52491448 2.63617427 68.06303486 16 93 C16 90.15238857 15.59746703 87.88340497 15.01171875 85.109375 C13.83448286 78.78783644 13.73648986 72.66430554 13.8125 66.25 C13.81894531 65.1170752 13.82539062 63.98415039 13.83203125 62.81689453 C13.90792875 54.51441989 14.23593596 46.26826449 15 38 C15.33 38 15.66 38 16 38 C16.09796875 39.10214844 16.1959375 40.20429688 16.296875 41.33984375 C18.54862016 64.8915271 23.39980945 88.57256271 42.140625 104.7578125 C44.10296107 106.06878492 45.69199749 106.58129158 48 107 C48.33 108.65 48.66 110.3 49 112 C48.01 112.66 47.02 113.32 46 114 C45.01 113.67 44.02 113.34 43 113 C43.495 111.515 43.495 111.515 44 110 C43.3709375 109.55011719 42.741875 109.10023438 42.09375 108.63671875 C29.64084212 99.27828346 22.38993966 86.77589446 18 72 C17.56826013 79.08373192 18.56743471 85.18161734 20.44140625 92.01953125 C21.014639 95.07810882 20.82917324 97.02925349 20 100 C18.24609375 99.859375 18.24609375 99.859375 16 99 C9.89495876 91.28070333 6.13684817 82.25248626 3 73 C2.65839844 72.00484375 2.31679687 71.0096875 1.96484375 69.984375 C1.02220276 67.06867573 0.19652153 64.15602921 -0.5625 61.1875 C-0.93568359 59.75470703 -0.93568359 59.75470703 -1.31640625 58.29296875 C-3.10327104 49.68538578 -3.18631812 41.11997333 -3.18530273 32.36328125 C-3.18748126 30.26801983 -3.20567417 28.17329327 -3.22460938 26.078125 C-3.25966623 17.610086 -2.85118695 9.30084197 -1 1 C-0.67 0.67 -0.34 0.34 0 0 Z " fill="#EFEFEF" transform="translate(106,265)"/>
<path d="M0 0 C1.32 0.33 2.64 0.66 4 1 C4.13462646 1.86612915 4.13462646 1.86612915 4.27197266 2.74975586 C6.13855906 14.48507525 8.4530428 25.5608679 12.73046875 36.6640625 C13.66898293 39.13018899 14.45833389 41.4287175 15 44 C13.515 44.495 13.515 44.495 12 45 C7.07659318 35.86550905 4.89773218 26.3075203 2.55322266 16.27539062 C1.79425114 13.15376019 0.91158224 10.08023222 0 7 C-7.68457821 21.74502824 -8.27373287 37.7996533 -6 54 C-9.61880983 53.29533226 -13.20731437 52.50067978 -16.796875 51.66015625 C-38.04269385 46.75030495 -58.22793369 44.64568153 -80 44 C-80 43.67 -80 43.34 -80 43 C-70.1 42.505 -70.1 42.505 -60 42 C-60 41.67 -60 41.34 -60 41 C-52.61377632 40.75365738 -45.65059231 41.43884469 -38.375 42.6875 C-37.33408203 42.86249023 -36.29316406 43.03748047 -35.22070312 43.21777344 C-26.54252674 44.75157821 -18.28628546 47.02668581 -10 50 C-10.02618408 49.23034912 -10.05236816 48.46069824 -10.0793457 47.66772461 C-11.10298976 13.00635943 -11.10298976 13.00635943 0 0 Z " fill="#ECECEB" transform="translate(350,92)"/>
<path d="M0 0 C0.495 3.465 0.495 3.465 1 7 C-0.32 7 -1.64 7 -3 7 C-2.34 7.66 -1.68 8.32 -1 9 C-2.22976563 9.24621094 -3.45953125 9.49242187 -4.7265625 9.74609375 C-10.75398258 11.08591392 -16.53721214 13.07023907 -22.375 15.0625 C-23.99341797 15.60874023 -23.99341797 15.60874023 -25.64453125 16.16601562 C-27.63009688 16.83654684 -29.61503748 17.50893404 -31.59912109 18.18383789 C-33.39740965 18.7951536 -35.19811383 19.39937128 -37 20 C-37.33 18.02 -37.66 16.04 -38 14 C-36.98421875 13.69707031 -35.9684375 13.39414062 -34.921875 13.08203125 C-24.7286261 9.99795192 -14.89035463 6.53044035 -5.375 1.6875 C-2 0 -2 0 0 0 Z " fill="#FCDCD3" transform="translate(303,418)"/>
<path d="M0 0 C0.99 0 1.98 0 3 0 C4.40113616 1.95309888 5.73339467 3.95708818 7 6 C9.58925669 8.58925669 10.67069432 8.26946157 14.27587891 8.31884766 C15.3768692 8.33871735 16.4778595 8.35858704 17.61221313 8.37905884 C18.80494843 8.39061005 19.99768372 8.40216125 21.2265625 8.4140625 C23.05349136 8.44311172 23.05349136 8.44311172 24.91732788 8.4727478 C28.8198133 8.53268215 32.72232799 8.57898471 36.625 8.625 C39.2656381 8.66316699 41.90626357 8.70221795 44.546875 8.7421875 C51.03113826 8.83839504 57.51547708 8.92340176 64 9 C64.495 10.98 64.495 10.98 65 13 C63.35 14.32 61.7 15.64 60 17 C59.505 16.01 59.505 16.01 59 15 C59.33 14.34 59.66 13.68 60 13 C59.36630493 13.00745743 58.73260986 13.01491486 58.07971191 13.02259827 C51.46010236 13.09162355 44.84254059 13.09741253 38.22265625 13.06713867 C35.75517589 13.06406403 33.28762077 13.07689861 30.8203125 13.10620117 C27.26423138 13.14563352 23.71234799 13.12709612 20.15625 13.09765625 C19.06010376 13.12223404 17.96395752 13.14681183 16.83459473 13.1721344 C12.21388689 13.0862419 9.18691435 12.92398359 5.4675293 10.02853394 C0 4.113393 0 4.113393 0 0 Z " fill="#F3F3F3" transform="translate(363,136)"/>
<path d="M0 0 C0.99 0.33 1.98 0.66 3 1 C2.54625 1.969375 2.0925 2.93875 1.625 3.9375 C-1.66325239 11.69777564 -2.28441746 19.20534611 -2.125 27.5625 C-2.11146484 28.93245117 -2.11146484 28.93245117 -2.09765625 30.33007812 C-2.07437253 32.55367319 -2.0416771 34.77668677 -2 37 C-10.085713 27.0418061 -10.085713 27.0418061 -9.890625 22.39453125 C-8.65170373 17.67250237 -6.58618846 13.49476766 -4.4375 9.125 C-4.01275391 8.24585938 -3.58800781 7.36671875 -3.15039062 6.4609375 C-2.10703441 4.30388644 -1.05678116 2.15049712 0 0 Z " fill="#DCC3BD" transform="translate(298,350)"/>
<path d="M0 0 C0.33 0 0.66 0 1 0 C1 6.93 1 13.86 1 21 C3.64 21 6.28 21 9 21 C12.484375 21.8046875 12.484375 21.8046875 15.75 22.875 C16.83796875 23.22304688 17.9259375 23.57109375 19.046875 23.9296875 C21.48566582 24.81358788 23.72088062 25.77193082 26 27 C26 27.66 26 28.32 26 29 C21.42386497 28.32414006 17.08167623 27.22942793 12.625 26 C4.44189607 23.83456542 -3.56397816 23.22436228 -12 23 C-11.505 21.515 -11.505 21.515 -11 20 C-7.37 20 -3.74 20 0 20 C0 13.4 0 6.8 0 0 Z " fill="#787774" transform="translate(204,265)"/>
<path d="M0 0 C3.89126347 3.33536869 6.17099741 7.26210499 8 12 C8 12.99 8 13.98 8 15 C5.6875 15.1875 5.6875 15.1875 3 15 C1.5625 13.6875 1.5625 13.6875 0 12 C-1.97620986 10.95377125 -3.9737129 9.94560065 -6 9 C-4.47291037 5.56404834 -2.40072955 2.88087546 0 0 Z " fill="#534477" transform="translate(322,448)"/>
<path d="M0 0 C0.33 0 0.66 0 1 0 C1.06984415 4.40018124 1.06637773 8.63153898 0.53125 13 C-0.17090199 19.00536202 -0.34992842 25.0233763 -0.5625 31.0625 C-0.60568359 32.21427734 -0.64886719 33.36605469 -0.69335938 34.55273438 C-0.79850852 37.36839491 -0.90065393 40.18412976 -1 43 C-1.66 42.67 -2.32 42.34 -3 42 C-3.05901588 37.60422496 -3.09393248 33.20855438 -3.125 28.8125 C-3.14175781 27.58595703 -3.15851563 26.35941406 -3.17578125 25.09570312 C-3.21889694 16.92527963 -2.75470791 9.00272719 -1 1 C-0.67 0.67 -0.34 0.34 0 0 Z " fill="#FFFFFF" transform="translate(106,265)"/>
<path d="M0 0 C0.33 0.66 0.66 1.32 1 2 C1.66 2.33 2.32 2.66 3 3 C2.73445313 4.07636719 2.46890625 5.15273437 2.1953125 6.26171875 C0.03640458 15.14323738 -1.80125803 23.93057064 -3 33 C-4.98651883 31.38595345 -5.93120598 30.55895142 -6.25 27.96875 C-5.28019767 18.39195196 -2.59503446 9.24062086 0 0 Z " fill="#E4E4E3" transform="translate(111,236)"/>
<path d="M0 0 C0 1.65 0 3.3 0 5 C-0.99 5 -1.98 5 -3 5 C-5.57243067 12.26774103 -7.7205886 19.39086902 -9 27 C-11.37731095 24.17075233 -12 23.41067102 -12 19.5625 C-10.96724366 13.49218775 -8.70146883 7.51224564 -6 2 C-3 0 -3 0 0 0 Z " fill="#E0E0DD" transform="translate(352,95)"/>
<path d="M0 0 C0.721875 0.00257813 1.44375 0.00515625 2.1875 0.0078125 C2.909375 0.00523437 3.63125 0.00265625 4.375 0 C6.1875 0.1328125 6.1875 0.1328125 7.1875 1.1328125 C7.64441383 6.38732152 7.64441383 6.38732152 6 9.0703125 C4.1875 10.1328125 4.1875 10.1328125 1.625 9.9453125 C-0.8125 9.1328125 -0.8125 9.1328125 -2.8125 7.1328125 C-3 4.0703125 -3 4.0703125 -2.8125 1.1328125 C-1.8125 0.1328125 -1.8125 0.1328125 0 0 Z " fill="#FFDDD4" transform="translate(149.8125,381.8671875)"/>
<path d="M0 0 C0.33 2.31 0.66 4.62 1 7 C-0.32 7 -1.64 7 -3 7 C-2.34 7.66 -1.68 8.32 -1 9 C-5.455 9.495 -5.455 9.495 -10 10 C-10 8.02 -10 6.04 -10 4 C-8.71086513 3.32845067 -7.41859796 2.66291141 -6.125 2 C-5.40570313 1.62875 -4.68640625 1.2575 -3.9453125 0.875 C-2 0 -2 0 0 0 Z " fill="#F6F5F4" transform="translate(303,418)"/>
<path d="M0 0 C3.83990988 1.38375131 6.97052564 3.16309349 10.3125 5.5 C11.19550781 6.1084375 12.07851562 6.716875 12.98828125 7.34375 C13.98408203 8.16359375 13.98408203 8.16359375 15 9 C15 9.66 15 10.32 15 11 C11.00987629 10.44010697 8.4744948 9.24330232 5.1875 6.9375 C4.39730469 6.38964844 3.60710937 5.84179688 2.79296875 5.27734375 C1.90544922 4.64505859 1.90544922 4.64505859 1 4 C0.34 5.32 -0.32 6.64 -1 8 C-1.66 8 -2.32 8 -3 8 C-2.45276317 4.62537285 -1.9451 2.91765 0 0 Z " fill="#FFAEBF" transform="translate(177,414)"/>
<path d="M0 0 C5.78591511 -0.10477512 11.29309366 0.00749455 17 1 C16.01 1.33 15.02 1.66 14 2 C14 2.66 14 3.32 14 4 C2.78 3.67 -8.44 3.34 -20 3 C-20 2.67 -20 2.34 -20 2 C-10.1 1.505 -10.1 1.505 0 1 C0 0.67 0 0.34 0 0 Z " fill="#DBDCD9" transform="translate(290,133)"/>
<path d="M0 0 C1.03640625 -0.01224609 2.0728125 -0.02449219 3.140625 -0.03710938 C4.13835937 -0.03904297 5.13609375 -0.04097656 6.1640625 -0.04296875 C7.52072021 -0.04913208 7.52072021 -0.04913208 8.90478516 -0.05541992 C11.375 0.1875 11.375 0.1875 15.375 2.1875 C4.155 2.5175 -7.065 2.8475 -18.625 3.1875 C-18.295 2.5275 -17.965 1.8675 -17.625 1.1875 C-11.90578496 -0.31403305 -5.87193099 0.00367915 0 0 Z " fill="#FFFFFF" transform="translate(278.625,132.8125)"/>
<path d="M0 0 C1.32 0.33 2.64 0.66 4 1 C4.50333542 3.60356241 5.00279378 6.20776651 5.5 8.8125 C5.64308594 9.55048828 5.78617187 10.28847656 5.93359375 11.04882812 C6.50926281 14.07794391 7 16.909196 7 20 C5.68 19.67 4.36 19.34 3 19 C2.14701624 15.32612505 1.89210529 11.9552607 1.9375 8.1875 C1.94652344 7.21167969 1.95554687 6.23585938 1.96484375 5.23046875 C1.97644531 4.49441406 1.98804688 3.75835937 2 3 C0.68 3.33 -0.64 3.66 -2 4 C-1.34 2.68 -0.68 1.36 0 0 Z " fill="#EFEFEE" transform="translate(350,92)"/>
<path d="M0 0 C0.33 0 0.66 0 1 0 C1 9.9 1 19.8 1 30 C0.01 30 -0.98 30 -2 30 C-2.05834395 26.12506384 -2.09371201 22.25024164 -2.125 18.375 C-2.14175781 17.28058594 -2.15851563 16.18617188 -2.17578125 15.05859375 C-2.23662606 5.01920021 -2.23662606 5.01920021 0 0 Z " fill="#FAFAF9" transform="translate(421,378)"/>
<path d="M0 0 C0 0.66 0 1.32 0 2 C-2.35143176 2.67789024 -4.70538624 3.34240747 -7.0625 4 C-7.71927734 4.19078125 -8.37605469 4.3815625 -9.05273438 4.578125 C-13.4674018 5.79596429 -17.37941677 6.19227394 -22 6 C-19.39439273 2.71306786 -16.69917215 2.18701677 -12.6875 1.3125 C-11.57761719 1.06113281 -10.46773438 0.80976563 -9.32421875 0.55078125 C-6.14342569 0.02376383 -3.21646244 -0.10218716 0 0 Z " fill="#F0EFF0" transform="translate(294,491)"/>
<path d="M0 0 C6.59904729 1.52785824 12.87389209 3.07617577 19 6 C19 6.66 19 7.32 19 8 C14.11899811 7.26861959 9.39975848 6.15925104 4.625 4.9375 C3.88894531 4.75123047 3.15289062 4.56496094 2.39453125 4.37304688 C0.59580556 3.91752543 -1.20217529 3.4590645 -3 3 C-2.01 2.67 -1.02 2.34 0 2 C0 1.34 0 0.68 0 0 Z " fill="#878685" transform="translate(211,286)"/>
<path d="M0 0 C6.93302093 -0.22731216 13.2168636 0.57997892 20 2 C19.01 2.495 19.01 2.495 18 3 C18 3.66 18 4.32 18 5 C12.30948637 4.4618629 6.65134116 3.8599867 1 3 C0.67 2.01 0.34 1.02 0 0 Z " fill="#E8E8E6" transform="translate(304,135)"/>
<path d="M0 0 C0.33 0.99 0.66 1.98 1 3 C-5.14778871 4.6277833 -10.64012196 5.20190089 -17 5 C-16.67 4.01 -16.34 3.02 -16 2 C-14.27192682 1.66104344 -12.54248026 1.32908475 -10.8125 1 C-9.84957031 0.814375 -8.88664062 0.62875 -7.89453125 0.4375 C-5.2065794 0.03122388 -2.71228981 -0.07933572 0 0 Z " fill="#E8E5E9" transform="translate(273,495)"/>
<path d="M0 0 C0.33 0 0.66 0 1 0 C1.66 5.94 2.32 11.88 3 18 C2.34 18 1.68 18 1 18 C0.67 18.66 0.34 19.32 0 20 C-0.38831218 17.04285337 -0.76115547 14.08516727 -1.125 11.125 C-1.23714844 10.28324219 -1.34929687 9.44148438 -1.46484375 8.57421875 C-1.56152344 7.76855469 -1.65820312 6.96289062 -1.7578125 6.1328125 C-1.8520752 5.38918457 -1.94633789 4.64555664 -2.04345703 3.87939453 C-2 2 -2 2 0 0 Z " fill="#E7E7E6" transform="translate(105,305)"/>
<path d="M0 0 C0.66 0 1.32 0 2 0 C2.33801152 2.54112232 2.67053379 5.08276746 3 7.625 C3.09539062 8.33785156 3.19078125 9.05070312 3.2890625 9.78515625 C3.81606101 13.88821609 4.10466984 17.85245742 4 22 C3.34 22 2.68 22 2 22 C-0.01670288 14.56340812 -0.2137731 7.68395543 0 0 Z " fill="#F7F7F7" transform="translate(121,337)"/>
<path d="M0 0 C-6.43028541 1.32388229 -12.4294834 2.24794402 -19 2 C-17 -1 -17 -1 -14.7578125 -1.765625 C-13.45457031 -2.00539062 -13.45457031 -2.00539062 -12.125 -2.25 C-11.26132813 -2.42015625 -10.39765625 -2.5903125 -9.5078125 -2.765625 C-5.37866594 -3.15152655 -3.45390191 -2.30260127 0 0 Z " fill="#EAEAE9" transform="translate(264,137)"/>
<path d="M0 0 C-1.05377755 3.12131579 -1.84581258 3.91884873 -4.8203125 5.484375 C-5.91085937 5.90203125 -7.00140625 6.3196875 -8.125 6.75 C-9.76855469 7.39195312 -9.76855469 7.39195312 -11.4453125 8.046875 C-12.28835938 8.36140625 -13.13140625 8.6759375 -14 9 C-14 8.01 -14 7.02 -14 6 C-12.04414675 4.99515796 -10.08523763 3.99626195 -8.125 3 C-6.48917969 2.1646875 -6.48917969 2.1646875 -4.8203125 1.3125 C-2 0 -2 0 0 0 Z " fill="#F2F0F2" transform="translate(334,477)"/>
<path d="M0 0 C0.33 0 0.66 0 1 0 C1.09706112 6.11485027 0.77040851 11.93303301 0 18 C-0.99 17.67 -1.98 17.34 -3 17 C-2.69268013 14.35346869 -2.37940678 11.707885 -2.0625 9.0625 C-1.97548828 8.30775391 -1.88847656 7.55300781 -1.79882812 6.77539062 C-1.11328125 1.11328125 -1.11328125 1.11328125 0 0 Z " fill="#F7F7F7" transform="translate(106,265)"/>
<path d="M0 0 C-2.66892697 3.45390549 -5.84151743 4.12452998 -10 5 C-12.4375 4.625 -12.4375 4.625 -14 4 C-13 2 -13 2 -10.8203125 1.11328125 C-9.93085938 0.84902344 -9.04140625 0.58476562 -8.125 0.3125 C-7.24070312 0.04050781 -6.35640625 -0.23148437 -5.4453125 -0.51171875 C-3 -1 -3 -1 0 0 Z " fill="#EAE7EB" transform="translate(320,484)"/>
<path d="M0 0 C1 3 1 3 0.22265625 5.04296875 C-0.16019531 5.75066406 -0.54304687 6.45835937 -0.9375 7.1875 C-1.31777344 7.90292969 -1.69804687 8.61835938 -2.08984375 9.35546875 C-2.54037109 10.16951172 -2.54037109 10.16951172 -3 11 C-2.01 11.33 -1.02 11.66 0 12 C-2.97 11.505 -2.97 11.505 -6 11 C-5.43518386 7.04628701 -4.28003407 4.28324906 -2 1 C-1.34 0.67 -0.68 0.34 0 0 Z " fill="#E6E6E6" transform="translate(223,483)"/>
<path d="M0 0 C0.66 0.33 1.32 0.66 2 1 C0.95724749 4.2441189 -0.61240491 5.60194664 -3.4375 7.3125 C-7 9 -7 9 -10 8 C-6.97727468 4.74475735 -3.74281699 2.38179263 0 0 Z " fill="#EDEDEC" transform="translate(421,150)"/>
<path d="M0 0 C1.12509213 3.37527638 0.90597042 3.91883406 -0.375 7.0625 C-0.65085937 7.75472656 -0.92671875 8.44695312 -1.2109375 9.16015625 C-1.76750652 10.45789886 -2.36850891 11.73701783 -3 13 C-3.66 13 -4.32 13 -5 13 C-4.54996653 7.37458159 -3.31558515 4.38512875 0 0 Z " fill="#F1F1F0" transform="translate(117,225)"/>
<path d="M0 0 C3 3.75 3 3.75 3 6 C1.68 6 0.36 6 -1 6 C-1.33 6.99 -1.66 7.98 -2 9 C-2.99 9 -3.98 9 -5 9 C-3.50163895 5.88801935 -1.80066242 2.9465385 0 0 Z " fill="#F2F2F2" transform="translate(339,427)"/>
<path d="M0 0 C0.66 0.33 1.32 0.66 2 1 C2 1.99 2 2.98 2 4 C-2.95 6.475 -2.95 6.475 -8 9 C-5.85809492 3.6452373 -4.74907807 2.78750235 0 0 Z " fill="#EAEAE9" transform="translate(184,160)"/>
<path d="M0 0 C0.33 0.66 0.66 1.32 1 2 C4.3 1.67 7.6 1.34 11 1 C11 1.66 11 2.32 11 3 C8.11788698 3.96070434 6.30149956 4.10581883 3.3125 4.0625 C2.10013672 4.04896484 2.10013672 4.04896484 0.86328125 4.03515625 C-0.05904297 4.01775391 -0.05904297 4.01775391 -1 4 C-0.67 2.68 -0.34 1.36 0 0 Z " fill="#F7F7F7" transform="translate(218,493)"/>
<path d="M0 0 C0.33 0.66 0.66 1.32 1 2 C1.66 2.33 2.32 2.66 3 3 C2.34 5.97 1.68 8.94 1 12 C0.01 11.34 -0.98 10.68 -2 10 C-1.34 6.7 -0.68 3.4 0 0 Z " fill="#E0E0DF" transform="translate(111,236)"/>
<path d="M0 0 C0.33 0 0.66 0 1 0 C1 2.64 1 5.28 1 8 C-0.32 7.34 -1.64 6.68 -3 6 C-3 5.34 -3 4.68 -3 4 C-3.99 3.67 -4.98 3.34 -6 3 C-5.195625 2.87625 -4.39125 2.7525 -3.5625 2.625 C-2.716875 2.41875 -1.87125 2.2125 -1 2 C-0.67 1.34 -0.34 0.68 0 0 Z " fill="#FBFBFB" transform="translate(305,422)"/>
<path d="M0 0 C-0.75 7.75 -0.75 7.75 -3 10 C-3.66 9.67 -4.32 9.34 -5 9 C-4.71848913 7.68528432 -4.42446661 6.37324233 -4.125 5.0625 C-3.96257812 4.33160156 -3.80015625 3.60070312 -3.6328125 2.84765625 C-2.93449973 0.80875539 -2.29775298 0 0 0 Z " fill="#E6E6E6" transform="translate(438,335)"/>
<path d="M0 0 C0.8353125 0.556875 0.8353125 0.556875 1.6875 1.125 C-1.59713659 3.31475773 -4.51946275 4.12306563 -8.3125 5.125 C-8.125 3.25 -8.125 3.25 -7.3125 1.125 C-4.4547735 -0.57418873 -3.16422579 -1.19727462 0 0 Z " fill="#E3E3E1" transform="translate(216.3125,146.875)"/>
<path d="M0 0 C3.71888239 0.50712033 6.73454239 1.11608215 10 3 C10 3.66 10 4.32 10 5 C6.28111761 4.49287967 3.26545761 3.88391785 0 2 C0 1.34 0 0.68 0 0 Z " fill="#7C7C7B" transform="translate(220,289)"/>
<path d="M0 0 C0.33 0.66 0.66 1.32 1 2 C1.66 2 2.32 2 3 2 C2.67 5.3 2.34 8.6 2 12 C-1 8 -1 8 -1.07421875 5.859375 C-0.53710938 2.9296875 -0.53710938 2.9296875 0 0 Z " fill="#DDDDDB" transform="translate(341,110)"/>
<path d="M0 0 C0.33 0.99 0.66 1.98 1 3 C2.98 2.67 4.96 2.34 7 2 C7.33 2.99 7.66 3.98 8 5 C5.36 5.33 2.72 5.66 0 6 C-0.38218767 4.34385343 -0.71395102 2.67542976 -1 1 C-0.67 0.67 -0.34 0.34 0 0 Z " fill="#F4F4F4" transform="translate(250,496)"/>
<path d="M0 0 C0.66 0.33 1.32 0.66 2 1 C1.67 1.99 1.34 2.98 1 4 C-2.0625 5.1875 -2.0625 5.1875 -5 6 C-5.33 5.34 -5.66 4.68 -6 4 C-3.94766315 1.7522025 -2.99332739 0.9977758 0 0 Z " fill="#EBEBEA" transform="translate(207,149)"/>
<path d="M0 0 C-0.33 0.66 -0.66 1.32 -1 2 C-4.3 2 -7.6 2 -11 2 C-10.67 1.34 -10.34 0.68 -10 0 C-6.35526801 -0.89093449 -3.57257469 -1.23666047 0 0 Z " fill="#F9F9F9" transform="translate(271,134)"/>
<path d="M0 0 C0.33 0 0.66 0 1 0 C0.67 3.63 0.34 7.26 0 11 C-0.99 10.34 -1.98 9.68 -3 9 C-2.69181644 7.68647977 -2.37832335 6.37420428 -2.0625 5.0625 C-1.88847656 4.33160156 -1.71445313 3.60070312 -1.53515625 2.84765625 C-1 1 -1 1 0 0 Z " fill="#F4F4F3" transform="translate(110,245)"/>
<path d="M0 0 C0.33 0.66 0.66 1.32 1 2 C-1.31 2.33 -3.62 2.66 -6 3 C-6.33 2.01 -6.66 1.02 -7 0 C-3.88407501 -1.03864166 -2.9737344 -1.09036928 0 0 Z " fill="#DFDCE1" transform="translate(307,488)"/>
<path d="M0 0 C-0.33 0.99 -0.66 1.98 -1 3 C-3.5625 4.1875 -3.5625 4.1875 -6 5 C-6 4.01 -6 3.02 -6 2 C-6.66 1.67 -7.32 1.34 -8 1 C-2.25 -1.125 -2.25 -1.125 0 0 Z " fill="#DCDCDA" transform="translate(397,165)"/>
<path d="M0 0 C0 1.65 0 3.3 0 5 C-2.64 5 -5.28 5 -8 5 C-5.93424534 2.72766987 -3.29882018 0 0 0 Z " fill="#6C6C6A" transform="translate(304,420)"/>
<path d="M0 0 C0 0.66 0 1.32 0 2 C-2.97 2 -5.94 2 -9 2 C-9 1.34 -9 0.68 -9 0 C-5.93109813 -1.53445094 -3.29905734 -0.54984289 0 0 Z " fill="#717171" transform="translate(211,286)"/>
<path d="M0 0 C2.3125 -0.1875 2.3125 -0.1875 5 0 C5.99 0.99 6.98 1.98 8 3 C5.03 3 2.06 3 -1 3 C-0.67 2.01 -0.34 1.02 0 0 Z " fill="#DBD7DC" transform="translate(257,497)"/>
<path d="M0 0 C0.33 0 0.66 0 1 0 C1 3.3 1 6.6 1 10 C0.01 9.01 -0.98 8.02 -2 7 C-1.56521739 1.56521739 -1.56521739 1.56521739 0 0 Z " fill="#EEEEEE" transform="translate(443,307)"/>
<path d="M0 0 C0.33 0 0.66 0 1 0 C1 2.31 1 4.62 1 7 C0.01 7 -0.98 7 -2 7 C-1.125 1.125 -1.125 1.125 0 0 Z " fill="#F1F1F0" transform="translate(344,105)"/>
</svg>
